<svg width="3518" height="3598" xmlns="http://www.w3.org/2000/svg" xmlns:xlink="http://www.w3.org/1999/xlink"><svg width="24" height="24" id="add-alt"><path fill="#4FC3F7" d="M20 13.5h-6.5V20h-2.9v-6.5H4v-2.9h6.5V4h2.9v6.5H20v3z"/></svg><svg width="24" height="24" id="add-user" x="24" y="24"><path d="M14.7 12c2 0 3.6-1.6 3.6-3.6s-1.6-3.6-3.6-3.6-3.6 1.6-3.6 3.6 1.6 3.6 3.6 3.6zm-8.1-1.8V7.5H4.8v2.7H2.1V12h2.7v2.7h1.8V12h2.7v-1.8H6.6zm8.1 3.6c-2.4 0-7.2 1.2-7.2 3.6v1.8H22v-1.8c-.1-2.4-4.9-3.6-7.3-3.6z" opacity=".5"/></svg><svg width="48" height="48" id="alert-battery" x="48" y="48"><path d="M24.154 2C11.92 2 2 11.924 2 24.165c0 12.24 9.92 22.165 22.154 22.165 12.235 0 22.154-9.924 22.154-22.165C46.308 11.925 36.388 2 24.154 2zm5.714 31.457H18.2V15.46h2.852v-1.99h5.866v1.99h2.95v17.997zm-6.828-4.27h1.982v-1.982H23.04v1.982zm0-3.963h1.982V19.28H23.04v5.944z" fill="#FFF"/></svg><svg width="48" height="48" id="alert-computer" x="96" y="96"><path d="M24.154 2C11.92 2 2 11.924 2 24.165c0 12.24 9.92 22.165 22.154 22.165 12.235 0 22.154-9.924 22.154-22.165C46.308 11.925 36.388 2 24.154 2zm-.17 32.138l-11.008-14.68c3.028-2.293 6.88-3.67 11.01-3.67 4.128 0 7.98 1.377 11.008 3.67l-11.01 14.68zm-.944-5.65h1.98v-1.98h-1.98v1.98zm0-3.962h1.98V19.51h-1.98v5.016z" fill="#FFF" opacity=".9"/></svg><svg width="48" height="48" id="alert-notification" x="144" y="144"><path d="M24.154 2C11.92 2 2 11.924 2 24.165c0 12.24 9.92 22.165 22.154 22.165 12.235 0 22.154-9.924 22.154-22.165C46.308 11.925 36.388 2 24.154 2zm-.744 15.428v-.618c0-.706.618-1.324 1.324-1.324.706 0 1.323.618 1.323 1.324v.618c2.56.618 4.412 2.823 4.412 5.56v3.175l-8.297-8.294a5.056 5.056 0 0 1 1.235-.444zm1.323 15.706a1.77 1.77 0 0 1-1.765-1.765h3.53c0 .97-.794 1.762-1.765 1.762zm7.236-.883L30.2 30.49h-12.97v-.882l1.764-1.765v-4.853c0-1.06.265-2.03.794-2.912l-2.56-2.56 1.15-1.146 14.734 14.735-1.146 1.147z" fill="#FFF" opacity=".9"/></svg><svg width="48" height="48" id="alert-phone" x="192" y="192"><path d="M24.154 2C11.92 2 2 11.924 2 24.165c0 12.24 9.92 22.165 22.154 22.165 12.235 0 22.154-9.924 22.154-22.165C46.308 11.925 36.388 2 24.154 2z" fill="#FFF" fill-opacity=".9"/><path d="M30.42 17.232c0 4.517-.008 9.026 0 13.544.825-.008 1.642.008 2.467-.008-.008-4.51-.008-9.01 0-13.52-.817-.048-1.642-.008-2.467-.016zm-3.7 2.9c.008 3.547-.008 7.095.008 10.643.817 0 1.634-.008 2.443 0 .035-3.684 0-7.377.02-11.06-.81-.057-1.627 0-2.436-.033a2.768 2.768 0 0 0-.032.45zm-3.668 2.018c-.024.152-.024.312-.024.464.008 2.723-.008 5.438.008 8.16h2.45c.017-.96 0-1.913.01-2.874-.017-1.914.023-3.836-.017-5.75-.81.008-1.62.008-2.43 0zm-3.7 8.626c.81-.008 1.626 0 2.443 0 .008-2.05.008-4.11 0-6.16h-2.45a395.16 395.16 0 0 0 .007 6.16zM15.635 27.1a280.3 280.3 0 0 1 0 3.668c.825.016 1.642 0 2.467.008.008-1.233 0-2.46 0-3.692-.825 0-1.65-.032-2.467.016zm-.725-9.82l.966-.963 1.928 1.928 1.93-1.928.963.964-1.93 1.93 1.93 1.93-.964.964-1.93-1.928-1.927 1.928-.965-.964 1.93-1.93z" fill="#ffbc00"/></svg><svg width="48" height="48" id="alert-update" x="240" y="240"><path d="M24.154 2C11.92 2 2 11.924 2 24.165c0 12.24 9.92 22.165 22.154 22.165 12.235 0 22.154-9.924 22.154-22.165C46.308 11.925 36.388 2 24.154 2zM31.7 23.037h-6.737l3.08-3.08c-1.06-1.06-2.406-1.733-4.043-1.733-3.176 0-5.775 2.6-5.775 5.775 0 3.174 2.6 5.773 5.775 5.773 2.503 0 4.62-1.637 5.39-3.85h2.022C30.546 29.198 27.562 31.7 24 31.7c-4.235 0-7.7-3.464-7.7-7.7 0-4.235 3.464-7.7 7.7-7.7 2.118 0 4.043.865 5.39 2.31l2.31-2.31v6.737z" fill-rule="evenodd" clip-rule="evenodd" fill="#FFF" fill-opacity=".9"/></svg><svg width="18" height="18" viewBox="0 0 24 24" id="audio" x="288" y="288"><path fill="#FFF" d="M12 2.5c-5 0-9 4-9 9v7c0 1.7 1.3 3 3 3h3v-8H5v-2c0-3.9 3.1-7 7-7s7 3.1 7 7v2h-4v8h3c1.7 0 3-1.3 3-3v-7c0-5-4-9-9-9z"/></svg><svg width="34" height="34" id="audio-cancel" x="306" y="306"><path d="M17 2c8.27 0 15 6.73 15 15s-6.73 15-15 15S2 25.27 2 17 8.73 2 17 2m0-1C8.163 1 1 8.163 1 17s7.163 16 16 16 16-7.163 16-16S25.837 1 17 1z" fill="#263238" opacity=".5"/><path d="M22.45 12.64l-1.09-1.09L17 15.91l-4.36-4.36-1.09 1.09L15.91 17l-4.36 4.36 1.09 1.09L17 18.09l4.36 4.36 1.09-1.09L18.09 17l4.36-4.36z" opacity=".5" fill="#263238"/></svg><svg width="34" height="34" id="audio-cancel-noborder" x="340" y="340"><path d="M22.45 12.64l-1.09-1.09L17 15.91l-4.36-4.36-1.09 1.09L15.91 17l-4.36 4.36 1.09 1.09L17 18.09l4.36 4.36 1.09-1.09L18.09 17l4.36-4.36z" opacity=".5" fill="#263238"/></svg><svg width="34" height="34" id="audio-download" x="374" y="374"><path d="M17 2c8.27 0 15 6.73 15 15s-6.73 15-15 15S2 25.27 2 17 8.73 2 17 2m0-1C8.163 1 1 8.163 1 17s7.163 16 16 16 16-7.163 16-16S25.837 1 17 1z" fill="#263238" opacity=".5"/><path d="M22.408 17.452h-3.164V10.61c0-.366-.3-.665-.664-.665h-3.16c-.365 0-.664.3-.664.664v6.84h-3.164c-.61 0-.767.364-.35.81l5 5.343c.546.66 1.003.538 1.514 0l5.002-5.345c.417-.445.26-.81-.35-.81z" opacity=".5" fill="#263238"/></svg><svg width="34" height="34" id="audio-pause" x="408" y="408"><path d="M9.247 25.044c0 .523.427.95.95.95h3.6c.522 0 .95-.427.95-.95V8.956a.953.953 0 0 0-.95-.95h-3.6a.953.953 0 0 0-.95.95v16.088zM20.203 8.006a.953.953 0 0 0-.95.95v16.088c0 .523.427.95.95.95h3.6c.522 0 .95-.427.95-.95V8.956a.953.953 0 0 0-.95-.95h-3.6z" opacity=".5" fill="#263238"/></svg><svg width="34" height="34" id="audio-play" x="442" y="442"><path d="M8.5 8.667C8.5 7 9.682 6.317 11.127 7.15l14.427 8.33c1.445.833 1.445 2.198 0 3.032l-14.427 8.33c-1.445.834-2.627.152-2.627-1.517V8.667z" opacity=".5" fill="#263238"/></svg><svg width="34" height="34" id="audio-upload" x="476" y="476"><path d="M17 2c8.27 0 15 6.73 15 15s-6.73 15-15 15S2 25.27 2 17 8.73 2 17 2m0-1C8.163 1 1 8.163 1 17s7.163 16 16 16 16-7.163 16-16S25.837 1 17 1z" fill="#263238" opacity=".5"/><path d="M21.98 22.466h-9.96a.52.52 0 0 0-.52.52v.462c0 .286.233.518.52.518h9.963a.52.52 0 0 0 .52-.518v-.463a.52.52 0 0 0-.52-.52zm-6.97-6.487v4.31c0 .322.265.59.59.59h2.812c.325 0 .59-.268.59-.59v-4.31h2.817c.54 0 .68-.327.31-.72L17.68 10.5c-.488-.586-.895-.48-1.35 0l-4.45 4.758c-.37.396-.23.72.313.72h2.816z" opacity=".5" fill="#263238"/></svg><svg width="24" height="24" id="back" x="510" y="510"><path fill-opacity=".5" d="M12 4l1.4 1.4L7.8 11H20v2H7.8l5.6 5.6L12 20l-8-8z"/></svg><svg style="width:24px;height:24px" pointer-events="none" display="block" width="24" height="24" id="back-blue" x="534" y="534"><path d="M20 11H7.8l5.6-5.6L12 4l-8 8 8 8 1.4-1.4L7.8 13H20v-2z" fill="#4fc3f7"/></svg><svg style="width:24px;height:24px" pointer-events="none" display="block" width="24" height="24" id="back-light" x="558" y="558"><path d="M20 11H7.8l5.6-5.6L12 4l-8 8 8 8 1.4-1.4L7.8 13H20v-2z" fill="#FFF"/></svg><svg id="broadcast" width="16" height="15" x="582" y="582"><style>.arst0{fill:#92a58c}</style><path class="arst0" d="M10.5 3L3.1 5.4c-.3.1-.6.5-.6.9v1.9c0 .4.3.8.7.9l.8.3v.4c0 1.5 1.2 2.9 2.9 2.9 1.1 0 2-.6 2.5-1.4l1.3.5c.2 0 .5-.2.5-.6V3.5c-.2-.4-.4-.6-.7-.5zm-3.9 8.5c-1 0-1.7-.8-1.7-1.7l3.2 1.1c-.4.3-.9.6-1.5.6zm6.1-8.8h-.3c-.3 0-.4.2-.4.3v8.6c0 .2.2.4.4.4h.3c.2 0 .4-.2.4-.4V3c.1-.1-.2-.3-.4-.3z"/></svg><svg id="broadcast-light" width="16" height="15" x="598" y="597"><style>.asst0{fill:#FFF}</style><path class="asst0" d="M10.5 3L3.1 5.4c-.3.1-.6.5-.6.9v1.9c0 .4.3.8.7.9l.8.3v.4c0 1.5 1.2 2.9 2.9 2.9 1.1 0 2-.6 2.5-1.4l1.3.5c.2 0 .5-.2.5-.6V3.5c-.2-.4-.4-.6-.7-.5zm-3.9 8.5c-1 0-1.7-.8-1.7-1.7l3.2 1.1c-.4.3-.9.6-1.5.6zm6.1-8.8h-.3c-.3 0-.4.2-.4.3v8.6c0 .2.2.4.4.4h.3c.2 0 .4-.2.4-.4V3c.1-.1-.2-.3-.4-.3z"/></svg><svg id="camera" width="51" height="51" x="614" y="612"><style>.atst0{clip-path:url(#atSVGID_2_)}.atst1{fill:#4e5da9}.atst2{fill:#92c654}.atst3{fill:#fec226}.atst4{fill:#f47b34}.atst5{fill:#de5144}.atst6{fill:#5d84c3}.st6,.st7{fill-rule:evenodd;clip-rule:evenodd}.atst7{fill:#f5f5f5;filter:url(#atdropshadow)}</style><filter id="atdropshadow" height="130%"><feGaussianBlur stdDeviation="1.5" in="SourceAlpha"/><feOffset dy="2" result="offsetblur"/><feComponentTransfer><feFuncA slope=".08" type="linear"/></feComponentTransfer><feMerge><feMergeNode/><feMergeNode in="SourceGraphic"/></feMerge></filter><defs><path id="atSVGID_1_" d="M25.5-1C40.2-1 52 10.8 52 25.5S40.2 52 25.5 52-1 40.2-1 25.5 10.8-1 25.5-1z"/></defs><clipPath id="atSVGID_2_"><use xlink:href="#atSVGID_1_" overflow="visible"/></clipPath><g class="atst0"><path class="atst1" d="M32.6 32.6l-6.8-.3-11.7 18c5.8 3.5 19.4 4.3 28.2-3.1l-8.5-15.5c-.3.2-.8.9-1.2.9z"/><path class="atst2" d="M18.3 32.6c-1 0-1.8-.8-1.8-1.8v-1.6l-18.6-.5c.1 11.8 8.5 19.6 17.1 23l11.1-19.1h-7.8z"/><path class="atst3" d="M16.6 20.2c0-.9 1-1.8 1.9-1.9L10.2 3.5C3.6 6.5-2.2 16.1-2.1 29.8h18.7v-9.6z"/><path class="atst4" d="M18.3 18.4l9 .4 11-17.5C35.2-1.2 20-5 9.4 2.9l8.9 15.5z"/><path class="atst5" d="M37.8.3L27.4 18.4h5.2c1 0 1.8.8 1.8 1.8l-.3 3h19.1c-.5-11.3-7.4-19-15.4-22.9z"/><path class="atst6" d="M53.1 22.6H34.3v-2.4c0-1-.8-1.8-1.8-1.8H18.2c-.9 0-1.7.8-1.7 1.8v10.7c0 1 .8 1.8 1.8 1.8h14.2c.4 0 .8-.2 1.2-.4l8.2 15.4c11.3-8.1 11.3-24.1 11.2-25.1z"/></g><path class="atst7" d="M33.3 33H17.5c-.9 0-1.6-.7-1.6-1.6v-11c0-.3.2-.7.4-.9l2.2-2.4c.2-.2.6-.4.9-.4H22c.3 0 .7.2.9.4l1.4 1.5h9c.9 0 1.6.7 1.6 1.6v11.2c0 .9-.7 1.6-1.6 1.6zm-7.9-11.9c-2.6 0-4.7 2.1-4.7 4.7s2.1 4.7 4.7 4.7 4.7-2.1 4.7-4.7-2.1-4.7-4.7-4.7zm0 8c-1.8 0-3.3-1.5-3.3-3.3s1.5-3.3 3.3-3.3c1.8 0 3.3 1.5 3.3 3.3s-1.5 3.3-3.3 3.3z"/></svg><svg width="24" height="24" id="camera-light" x="665" y="663"><path fill-rule="evenodd" clip-rule="evenodd" fill="#FFF" d="M21.317 4.38H10.97L9.08 2.45c-.246-.25-.736-.457-1.09-.457H4.906c-.352 0-.837.21-1.078.468L1.2 5.275C.96 5.53.764 6.028.764 6.38v1.878l-.002.01v11.19c0 1.06.86 1.92 1.922 1.92h18.634c1.06 0 1.92-.86 1.92-1.92V6.3c.002-1.06-.858-1.92-1.92-1.92zm-9.24 14.13a5.577 5.577 0 1 1 0-11.154 5.577 5.577 0 0 1 0 11.154zm0-9.506a3.93 3.93 0 1 0 0 7.858 3.93 3.93 0 0 0 0-7.858z"/></svg><svg width="24" height="24" id="chat" x="689" y="687"><path opacity=".5" fill-rule="evenodd" clip-rule="evenodd" d="M19.005 3.175H4.675C3.64 3.175 3 3.79 3 4.82v16.2l3.544-3.514h12.46c1.034 0 2.065-1.06 2.065-2.093V4.82c-.004-1.03-1.035-1.645-2.067-1.645zm-4.99 9.87H7.042V11.1h6.976v1.944zm3-4H7.042V7.1h9.976v1.944z"/></svg><svg width="24" height="24" id="checkmark" x="713" y="711"><path opacity=".4" d="M9 17.2l-4-4-1.4 1.3L9 19.9 20.4 8.5 19 7.1z"/></svg><svg width="24" height="24" id="checkmark-light" x="737" y="735"><path fill="#FFF" d="M8 17.1l-5.2-5.2-1.7 1.7 6.9 7L22.9 5.7 21.2 4z"/></svg><svg viewBox="0 -6 30 30" width="30" height="30" id="checkmark-light-l" x="761" y="759"><path fill="#FFF" d="M9.9 15.6L3.2 8.9 1 11.1 9.9 20 29 .9l-2.2-2.2z"/></svg><svg width="30" height="30" id="chevron-left" x="791" y="789"><path d="M19.214 21.212L12.864 15l6.35-6.35-1.932-1.932L9 15l8.282 8.282 1.932-2.07z" fill="#FFF"/></svg><svg width="30" height="30" id="chevron-right" x="821" y="819"><path d="M11 21.212L17.35 15 11 8.65l1.932-1.932L21.215 15l-8.282 8.282L11 21.212z" fill="#FFF"/></svg><svg width="24" height="24" id="clip" x="851" y="849"><path opacity=".4" d="M1.816 15.556v.002c0 1.502.584 2.912 1.646 3.972a5.59 5.59 0 0 0 3.974 1.647c1.5 0 2.91-.584 3.972-1.645l9.547-9.548c.77-.768 1.147-1.767 1.058-2.817-.08-.968-.548-1.927-1.32-2.698-1.593-1.595-4.067-1.714-5.516-.265L7.26 12.122c-.88.88-.79 2.25.215 3.26.96.96 2.423 1.054 3.263.216l5.51-5.512c.28-.28.268-.722.054-.936l-.244-.244c-.19-.19-.567-.35-.957.04-1.696 1.7-5.503 5.506-5.503 5.506-.18.18-.635.127-.976-.214-.1-.097-.576-.613-.213-.973l7.915-7.917c.82-.817 2.27-.7 3.23.262.5.5.804 1.1.85 1.685.05.573-.155 1.11-.59 1.543l-9.545 9.55a3.97 3.97 0 0 1-2.83 1.17 3.975 3.975 0 0 1-2.83-1.173 3.973 3.973 0 0 1-1.17-2.828c0-1.07.414-2.076 1.17-2.83l7.21-7.21c.157-.158.264-.58.028-.815L11.5 4.36a.572.572 0 0 0-.834.018L3.46 11.585a5.577 5.577 0 0 0-1.644 3.97z"/></svg><svg width="32" height="32" id="connection-l-light" x="875" y="873"><path d="M15.95 27.37L1.808 8.51c3.89-2.947 8.84-4.714 14.142-4.714 5.304 0 10.254 1.768 14.142 4.714L15.95 27.37zm-1.214-7.923h2.545v-2.545H14.74v2.545zm0-5.09h2.545V7.912H14.74v6.445z" fill="#FFF" opacity=".9"/></svg><svg id="contact" width="51" height="51" x="907" y="905"><style>.bdst0{clip-path:url(#bdSVGID_2_)}.bdst1{fill-rule:evenodd;clip-rule:evenodd;fill:#0a7bbf}.bdst2{fill:#09abf4}.st2,.st3{fill-rule:evenodd;clip-rule:evenodd}.bdst3{fill:#f5f5f5;filter:url(#bddropshadow)}</style><filter id="bddropshadow" height="130%"><feGaussianBlur stdDeviation="1.5" in="SourceAlpha"/><feOffset dy="2" result="offsetblur"/><feComponentTransfer><feFuncA slope=".08" type="linear"/></feComponentTransfer><feMerge><feMergeNode/><feMergeNode in="SourceGraphic"/></feMerge></filter><defs><path id="bdSVGID_1_" d="M25.5-1C40.2-1 52 10.8 52 25.5S40.2 52 25.5 52-1 40.2-1 25.5 10.8-1 25.5-1z"/></defs><clipPath id="bdSVGID_2_"><use xlink:href="#bdSVGID_1_" overflow="visible"/></clipPath><g class="bdst0"><path class="bdst1" d="M25.5-2.1C10.9-2.1-2.1 4.6-2.1 26.6h55.2c-.1-19-13-28.7-27.6-28.7z"/><path class="bdst2" d="M52 25.5H-2.1c0 14.6 13 27.6 27.6 27.6s27.6-13 27.6-27.6H52z"/></g><path class="bdst3" d="M25.5 25.1c-2.5 0-4.6-2-4.6-4.6 0-2.5 2-4.6 4.6-4.6 2.5 0 4.6 2 4.6 4.6 0 2.6-2.1 4.6-4.6 4.6zm-.2 8.4h-8.9V31c0-.4.1-.8.4-1.1 1.3-1.3 4.6-2.4 8.5-2.4 3.9 0 7.3 1.1 8.7 2.4.3.3.6.7.6 1.1v2.5h-9.3z"/></svg><svg id="delete" width="24" height="24" x="958" y="956"><style>.best0{fill:#263238}</style><path class="best0" d="M6 18c0 1.1.9 2 2 2h8c1.1 0 2-.9 2-2V6H6v12zM19 3h-3.5l-1-1h-5l-1 1H5v2h14V3z" id="bedelete"/></svg><svg width="24" height="24" id="dnd" x="982" y="980"><path d="M10.6 5.27v-.595c0-.68.596-1.275 1.276-1.275s1.274.595 1.274 1.275v.595c2.465.595 4.25 2.72 4.25 5.355v3.06l-7.99-7.99c.34-.17.766-.34 1.19-.424zm1.275 15.13c-.935 0-1.7-.765-1.7-1.7h3.4c0 .935-.764 1.7-1.7 1.7zm6.97-.85l-1.7-1.7H4.652V17l1.7-1.7v-4.675c0-1.02.256-1.954.766-2.805L4.65 5.355 5.756 4.25 19.95 18.445l-1.104 1.104z" opacity=".5"/></svg><svg id="download" viewBox="4 4 24 24" width="24" height="24" x="1006" y="1004"><style>.bgst0{fill:#263238}</style><path class="bgst0" d="M22.9 13.5h-4V7.6H13v5.9H9l6.9 6.9 7-6.9zM9.1 22.4v2H23v-2H9.1z"/></svg><svg id="emoji-activity" width="24" height="24" x="1030" y="1028"><style>.bhst0{fill:silver}</style><path class="bhst0" d="M14.8 15.3l1.3-3.8c.1-.2 0-.5-.2-.6l-3.3-2.4c-.2-.1-.5-.1-.6 0l-3.3 2.4c-.2.1-.3.4-.2.6l1.3 3.8c.1.2.3.4.5.4h4c.2 0 .4-.2.5-.4z"/><path class="bhst0" d="M12 1.9C6.4 1.9 1.9 6.4 1.9 12S6.4 22.1 12 22.1 22.1 17.6 22.1 12 17.6 1.9 12 1.9zM9.8 20.3c.1-.2.1-.4 0-.6l-1.4-2.3c-.1-.1-.2-.2-.4-.3l-2.5-.6c-.2-.1-.5.1-.6.2-.9-1.3-1.4-2.9-1.5-4.5.2 0 .4 0 .5-.2l1.7-2c.1 0 .2-.2.2-.3l-.3-2.6c0-.2-.1-.3-.3-.4C6.2 5.4 7.5 4.5 9 4c0 .1.2.3.3.3l2.5 1.1c.1.1.3.1.4 0l2.5-1.1.3-.3c1.5.6 2.7 1.5 3.7 2.7-.1.1-.2.2-.2.4l-.2 2.6c0 .2 0 .3.1.4l1.7 2c.1.1.3.2.4.2 0 1.6-.5 3.1-1.3 4.4-.1-.1-.2-.1-.4-.1l-2.5.6c-.1 0-.3.1-.4.3l-1.4 2.3c-.1.2-.1.3 0 .5-.8.2-1.6.4-2.5.4-.7-.1-1.5-.2-2.2-.4z"/></svg><svg id="emoji-flags" width="24" height="24" x="1054" y="1052"><style>.bist0{fill:silver}</style><path class="bist0" d="M5.5 3.8v-.2c0-.3-.2-.5-.5-.5h-.5c-.3 0-.5.2-.5.5V21c0 .3.2.5.5.5H5c.3 0 .5-.2.5-.5v-6.2c5 1.8 9.3-2.7 14.5.6V4.1C14.9 1 10.3 5.6 5.5 3.8zm10.3 8.8c-1.4 0-2.8.3-4.1.6-1.2.3-2.4.5-3.5.5-.9 0-1.8-.2-2.6-.5V5.4c.8.2 1.5.3 2.3.3 1.5 0 2.9-.4 4.3-.7 1.3-.3 2.5-.6 3.8-.6.9 0 1.7.2 2.5.5V13c-.9-.2-1.8-.4-2.7-.4z"/></svg><svg id="emoji-food" width="24" height="24" x="1078" y="1076"><style>.bjst0{fill:silver}</style><path class="bjst0" d="M7.4 11.4c-.4 0-.8.4-.8.8V14c0 .4.4.8.8.8s.8-.4.6-.8v-1.8c0-.6-.2-.8-.6-.8zm-2.8-1c-.4 0-.8.4-.8.8V15c0 .4.4.8.8.8s.8-.4.8-.8v-3.8c0-.6-.4-.8-.8-.8z"/><path class="bjst0" d="M23 7.2c-.6-.6-1.6-.8-2.8-.6-.2 0-.4.2-.6.2V4.2c0-.6-.6-1.2-1.2-1.2h-17C.8 3 .2 3.6.2 4.2v7.4c0 5.4 3.2 9.6 8.4 9.6h2.2c4.2 0 7-2.6 8-6h.4c2.2-.4 4-2.6 4.4-4.8.4-1.4.2-2.4-.6-3.2zm-4.8-2.8v3H1.6v-3h16.6zM11 19.8H8.8c-5.2 0-7-4.4-7-8.2V8.8h16.6v2.8c-.2 4-2.4 8.2-7.4 8.2zm8.4-6.2c.2-.6.2-1.4.2-2V8.4c.4-.2.6-.4 1-.4.6-.2 1.2 0 1.4.4.4.4.6 1 .4 1.8-.2 1.4-1.6 3-3 3.4z"/></svg><svg id="emoji-input" width="20" height="20" x="1102" y="1100"><style>.bkst1{fill:silver}</style><path class="bkst1" d="M10 19c-5 0-9-4-9-9s4-9 9-9 9 4 9 9-4 9-9 9zm0-16.6c-4.2 0-7.6 3.4-7.6 7.6s3.4 7.6 7.6 7.6c4.2 0 7.6-3.4 7.6-7.6S14.2 2.4 10 2.4z"/><path class="bkst1" d="M7.2 9.6c.6 0 1.2-.6 1.2-1.3 0-.7-.6-1.3-1.2-1.3s-1.1.6-1.1 1.3c0 .7.5 1.3 1.1 1.3zm7.4 1.8c-1 .1-2.7.4-4.5.4-1.7 0-3.5-.3-4.4-.4-.3 0-.6.3-.4.6 1 1.7 2.8 3.1 4.9 3.1 2.1 0 3.9-1.4 4.9-3.1 0-.3-.2-.6-.5-.6zm-4.3 2.1c-2.3 0-3.6-.8-3.7-1.4 0 0 3.9.8 7.1 0-.1 0-.5 1.4-3.4 1.4zm2.5-3.9c.6 0 1.2-.6 1.2-1.3 0-.7-.5-1.3-1.2-1.3-.6 0-1.2.6-1.2 1.3 0 .7.6 1.3 1.2 1.3z"/></svg><svg id="emoji-nature" width="24" height="24" x="1122" y="1120"><style>.blst0{fill:silver}</style><ellipse class="blst0" cx="7.2" cy="13.6" rx="1.1" ry="1.4"/><ellipse class="blst0" cx="16.9" cy="13.6" rx="1.1" ry="1.4"/><path class="blst0" d="M21.5 11.1l-1.2-2.4c.9-.4 1.7-1.3 2-2.2.3-.7.4-2.1-1-3.5-1-.9-2-1.2-2.9-1-1.1.3-1.9 1.2-2.3 1.9-1.4-.7-2.9-.8-4.1-.8-1.5 0-2.8.3-4 .9-.5-.9-1.2-1.8-2.3-2.1-1-.2-2 .1-2.9 1-1 1-1.4 2.2-1 3.4.4 1.1 1.2 1.9 2 2.3-.2.5-.4 1-.6 1.6l-.2.2c-.3.7-.5 1.3-.8 1.9-.4 1-.9 1.9-.9 3.1 0 1.6.8 6.7 10.5 6.7 3.8 0 6.6-.7 8.5-2.2 1.9-1.5 2.2-3.4 2.2-4.3.2-2.1-.2-2.9-1-4.5zm-2.7-7.6c.4-.1.9.1 1.5.6.6.6.8 1.2.6 1.8-.2.6-.7 1.1-1.2 1.3-.6-1.2-1.3-2-2.1-2.6.2-.4.6-1 1.2-1.1zM3.3 5.9c-.2-.6 0-1.2.6-1.8.5-.5 1.1-.7 1.5-.6.5.1 1.1.7 1.3 1.2-.9.7-1.6 1.5-2.2 2.6C4 7 3.4 6.5 3.3 5.9zm17.8 9.7c0 .7-.2 2-1.6 3.1-1.5 1.2-4.1 1.8-7.5 1.8-8.3 0-8.9-3.9-8.9-5.1 0-.8.3-1.5.7-2.4.3-.6.6-1.2.8-2.1l.1-.2c.5-1.5 2-6.2 7.3-6.2 1.2 0 2.5.2 3.7.9.1.1.2.2.4.3h.1c.9.7 1.7 1.7 2.4 3.2.6 1.3 1 2.2 1.4 2.9.8 1.6 1.1 2.1 1.1 3.8z"/><path class="blst0" d="M14.6 17c-.1.1-.6.4-1.2.3-.4-.1-.7-.3-.9-.8 0-.1-.1-.1-.1-.2.8-.1 1.3-.6 1.3-1.3 0-.7-.7 0-1.7 0-.9 0-1.7-.7-1.7 0 0 .6.6 1.2 1.4 1.3l-.1.1c-.3.4-.5.7-.9.8-.5.1-1.1-.1-1.3-.3-.2-.2-.5-.1-.7.1-.2.2-.1.5.1.7.1.1.8.5 1.6.5.2 0 .4 0 .5-.1.4-.1.8-.3 1.1-.7.4.4.9.6 1.2.7.8.2 1.7-.2 2-.5.2-.2.2-.5 0-.7-.1 0-.4-.1-.6.1z"/></svg><svg id="emoji-objects" width="24" height="24" x="1146" y="1144"><style>.bmst0{fill:silver}</style><path class="bmst0" d="M18.8 6.7c-.9-2.6-3.2-4.6-6-4.9h-1.6c-2.8.3-5.1 2.2-6 4.9-1 3 .1 6.2 2.7 8H8c.2.1.3.4.3.6v2c0 .8.6 1.4 1.4 1.4h4.6c.8 0 1.4-.6 1.4-1.4v-2c0-.2.1-.5.3-.6l.1-.1c2.5-1.8 3.6-5 2.7-7.9zm-3.5 6.9l-.1.1c-.5.4-.9 1-.9 1.7v2s0 .1-.1.1H9.8s-.1 0-.1-.1v-2c0-.7-.3-1.3-.9-1.7l-.1-.1c-2-1.4-3-4-2.2-6.5.7-2.1 2.6-3.7 4.9-3.9h1.3c2.2.2 4.2 1.8 4.9 3.9.7 2.4-.2 5-2.3 6.5zm-6.1 7.6c0 .6.5 1 1 1h3.7c.6 0 1-.5 1-1v-1H9.2v1z"/><path class="bmst0" d="M13.6 10.5c-.4 0-.8.3-.8.8 0 .1 0 .2.1.3-.2.3-.5.5-.8.5-.3 0-.6-.2-.8-.5 0-.1.1-.2.1-.3 0-.4-.3-.8-.8-.8-.4 0-.8.3-.8.8 0 .4.3.7.7.8.3.4.7.7 1.1.8V15c0 .2.2.4.4.4s.4-.2.4-.4v-2.1c.4-.1.8-.4 1.1-.8.4 0 .8-.3.8-.8s-.3-.8-.7-.8z"/></svg><svg id="emoji-people" width="24" height="24" x="1170" y="1168"><style>.bnst0{fill:silver}</style><path class="bnst0" d="M12 22.1C6.4 22.1 1.9 17.6 1.9 12S6.4 1.9 12 1.9 22.1 6.4 22.1 12 17.6 22.1 12 22.1zm0-18.6c-4.7 0-8.5 3.8-8.5 8.5s3.8 8.5 8.5 8.5 8.5-3.8 8.5-8.5-3.8-8.5-8.5-8.5z"/><path class="bnst0" d="M8.9 11.6c.7 0 1.3-.7 1.3-1.5s-.6-1.5-1.3-1.5c-.7 0-1.3.7-1.3 1.5s.6 1.5 1.3 1.5zm8.2 2c-1.1.1-3 .4-5 .4s-4-.3-5-.4c-.4 0-.6.3-.4.7 1.1 2 3.1 3.5 5.5 3.5 2.3 0 4.4-1.5 5.5-3.5.1-.3-.2-.7-.6-.7zM12.3 16c-2.6 0-4.1-1-4.2-1.6 0 0 4.4.9 8 0 0 0-.5 1.6-3.8 1.6zm2.8-4.4c.7 0 1.3-.7 1.3-1.5s-.6-1.5-1.3-1.5c-.7 0-1.3.7-1.3 1.5s.6 1.5 1.3 1.5z"/></svg><svg id="emoji-recent" width="24" height="24" x="1194" y="1192"><style>.bost1{fill:silver}</style><path class="bost1" d="M12 22.1C6.4 22.1 1.9 17.6 1.9 12S6.4 1.9 12 1.9 22.1 6.4 22.1 12 17.6 22.1 12 22.1zm0-18.6c-4.7 0-8.5 3.8-8.5 8.5s3.8 8.5 8.5 8.5 8.5-3.8 8.5-8.5-3.8-8.5-8.5-8.5z"/><path class="bost1" d="M16.4 16.2c-.1 0-.3 0-.4-.1l-4.8-2.9V7c0-.5.4-.8.8-.8.5 0 .8.4.8.8v5.2l4 2.4c.4.2.5.7.3 1.1-.1.3-.4.5-.7.5z"/></svg><svg id="emoji-symbols" width="24" height="24" x="1218" y="1216"><style>.bpst0{fill:silver}</style><path class="bpst0" d="M14.5 12.9V11h2.2l-.2-1.3h-2V7.3H13v2.5h-2V7.4H9.5v2.4H7.2l.2 1.2h2.1v1.9H7.3l.2 1.3h2v2.4H11v-2.4h2v2.4h1.5v-2.4h2.3l-.2-1.3h-2.1zM11 11h2v1.9h-2V11z"/><path class="bpst0" d="M16.1 2.6H7.9C5 2.6 2.6 5 2.6 7.9V16c0 3 2.4 5.3 5.3 5.3H16c3 0 5.3-2.4 5.3-5.3V7.9c.1-2.9-2.3-5.3-5.2-5.3zm3.8 13.5c0 2.1-1.7 3.8-3.8 3.8H7.9c-2.1 0-3.8-1.7-3.8-3.8V7.9c0-2.1 1.7-3.8 3.8-3.8H16c2.1 0 3.8 1.7 3.8 3.8v8.2z"/></svg><svg id="emoji-travel" width="24" height="24" x="1242" y="1240"><style>.bqst0{fill:silver}</style><path class="bqst0" d="M21.5 11.5c0-.7-.1-1.4-.3-2l-1.5-4.3C19.2 3.9 18 3 16.6 3H7.3c-1.4 0-2.6.9-3.1 2.2L2.6 9.9c-.1.4-.2.7-.2 1.1v8.6c0 .6.5 1.1 1.1 1.1h1.1c.6 0 1.1-.5 1.1-1.1v-1.1h12.7v1.1c0 .6.5 1.1 1.1 1.1h1.1c.6 0 1.1-.5 1.1-1.1v-7.4l-.2-.7zM4.1 10.4l1.6-4.7c.2-.7.9-1.2 1.7-1.2h9.2c.7 0 1.4.5 1.6 1.2l1.5 4.3c.1.3.2.6.2.8H4c-.1-.1 0-.3.1-.4zm1.4 5.7c-.8 0-1.5-.7-1.5-1.5s.7-1.5 1.5-1.5 1.5.7 1.5 1.5c-.1.8-.7 1.5-1.5 1.5zm9.4-.6H9.3c-.5 0-1-.4-1-1 0-.5.4-1 1-1h5.6c.5 0 1 .4 1 1-.1.6-.5 1-1 1zm3.7.6c-.8 0-1.5-.7-1.5-1.5s.7-1.5 1.5-1.5 1.5.7 1.5 1.5-.7 1.5-1.5 1.5z"/></svg><svg width="24" height="24" id="error" x="1266" y="1264"><path d="M13.008 17.52h-2.016v-2.033h2.016v2.033zm0-4.472h-2.016V6.48h2.016v6.568z" fill="#FFF"/></svg><svg id="forward" viewBox="4 4 24 24" width="24" height="24" x="1290" y="1288"><style>.bsst0{fill:#263238}</style><path class="bsst0" d="M15 12V8l8 8-8 8v-4H7v-8z"/></svg><svg width="30" height="30" viewBox="-3 -3 30 30" id="forward-light" x="1314" y="1312"><path fill="#FFF" d="M12 4l-1.4 1.4 5.6 5.6H4v2h12.2l-5.6 5.6L12 20l8-8z"/></svg><svg width="24" height="24" id="gps-light" x="1344" y="1342"><path fill="#FFF" d="M12 8c-2.2 0-4 1.8-4 4s1.8 4 4 4 4-1.8 4-4-1.8-4-4-4zm8.9 3c-.5-4.2-3.8-7.5-7.9-7.9V1h-2v2.1c-4.2.4-7.5 3.7-7.9 7.9H1v2h2.1c.5 4.2 3.8 7.5 7.9 7.9V23h2v-2.1c4.2-.5 7.5-3.8 7.9-7.9H23v-2h-2.1zM12 19c-3.9 0-7-3.1-7-7s3.1-7 7-7 7 3.1 7 7-3.1 7-7 7z"/></svg><svg width="24" height="24" id="hide" x="1368" y="1366"><path opacity=".4" d="M22.5 6.977c0-.223-.152-.303-.34-.28l-9.91 7.224a.51.51 0 0 1-.673.1L1.83 6.804c-.185-.125-.333-.046-.333.177l.006 2.394c0 .224.15.51.34.632l9.75 7.206c.187.125.49.125.675 0l9.898-7.268a.84.84 0 0 0 .338-.63L22.5 6.977z"/></svg><svg id="image" width="51" height="51" x="1392" y="1390"><style>.bwst0{clip-path:url(#bwSVGID_2_)}.bwst1{fill-rule:evenodd;clip-rule:evenodd;fill:#8333a3}.bwst2{fill:#702a8c}.bwst3{fill:#9a37a3}.bwst4{fill:#ce64de}.bwst5{fill:#bf59cf}.bwst6{fill:#ac44cf}.bwst7{fill-rule:evenodd;clip-rule:evenodd;fill:#f5f5f5;filter:url(#bwdropshadow)}</style><filter id="bwdropshadow" height="130%"><feGaussianBlur stdDeviation="1.5" in="SourceAlpha"/><feOffset dy="2" result="offsetblur"/><feComponentTransfer><feFuncA slope=".08" type="linear"/></feComponentTransfer><feMerge><feMergeNode/><feMergeNode in="SourceGraphic"/></feMerge></filter><defs><path id="bwSVGID_1_" d="M25.5-1C40.2-1 52 10.8 52 25.5S40.2 52 25.5 52-1 40.2-1 25.5 10.8-1 25.5-1z"/></defs><clipPath id="bwSVGID_2_"><use xlink:href="#bwSVGID_1_" overflow="visible"/></clipPath><g class="bwst0"><path class="bwst1" d="M53.1 22.5H34.3v-2.4c0-1-.8-1.8-1.8-1.8H18.2c-.9 0-1.7.8-1.7 1.8v10.7c0 1 .8 1.8 1.8 1.8h14.2c.4 0 .8-.2 1.2-.4L41 47.8c6.7-3.6 12.1-13.2 12.1-25.3z"/><path class="bwst2" d="M32.6 32.6l-7-.1-10.6 18c4.4 2.4 17 4.5 27-2.6l-8.3-15.7c-.3.3-.7.4-1.1.4z"/><path class="bwst3" d="M18.3 32.6c-1 0-1.8-.8-1.8-1.8l.1-1.5-18.7-.3c1.5 9.4 8.9 18.6 17.5 22l10.7-18.4h-7.8z"/><path class="bwst4" d="M16.6 20.2c0-.9 1.1-1.7 2-1.8L10.7 3.2C5.4 6.1-1.8 11.9-2.1 29.8l18.7-.1v-9.5z"/><path class="bwst5" d="M18.3 18.4l9.5.4 9.8-17.3C32.3-1.7 20.4-4 9.7 3.6l8.6 14.8z"/><path class="bwst6" d="M37.5.8L27.4 18.4h5.2c1 0 1.8.8 1.8 1.8l-.4 2.7 19.1-.1c-1-9.2-7.6-18.1-15.6-22z"/></g><path class="bwst7" d="M32.9 32.9H18.1c-1 0-1.9-.8-1.9-1.9V20c0-1 .8-1.9 1.9-1.9h14.8c1 0 1.9.8 1.9 1.9v11c-.1 1.1-.9 1.9-1.9 1.9zm-2.2-12c-1 0-1.8.8-1.8 1.8s.8 1.8 1.8 1.8 1.8-.8 1.8-1.8-.8-1.8-1.8-1.8zm1.9 8L27.9 26l-2.4 1.2-4.7-3.5-2.4 2.3v4.7h14.2v-1.8z"/></svg><svg id="location" width="51" height="51" x="1443" y="1441"><style>.bxst0{fill-rule:evenodd;clip-rule:evenodd;fill:#1aa260}.bxst1{clip-path:url(#bxSVGID_2_)}.bxst2{fill-rule:evenodd;clip-rule:evenodd;fill:#afafaf}.bxst3{fill:#3d8df4}.st3,.st4{fill-rule:evenodd;clip-rule:evenodd}.bxst4{fill:#e4e4e4}.bxst5{fill:#ffdd46}.st5,.st6{fill-rule:evenodd;clip-rule:evenodd}.bxst6{fill:#f5f5f5;filter:url(#bxdropshadow)}</style><filter id="bxdropshadow" height="130%"><feGaussianBlur stdDeviation="1.5" in="SourceAlpha"/><feOffset dy="2" result="offsetblur"/><feComponentTransfer><feFuncA slope=".08" type="linear"/></feComponentTransfer><feMerge><feMergeNode/><feMergeNode in="SourceGraphic"/></feMerge></filter><path class="bxst0" d="M25.5-1c11.1 0 20.6 6.8 24.6 16.5-2.5 2.7-3.6 3.8-3.6 3.8L14.2 46.1s-1.8.9-3.3 1.6C3.8 42.9-1 34.8-1 25.5-1 10.9 10.9-1 25.5-1z"/><defs><path id="bxSVGID_1_" d="M25.5-1C40.1-1 52 10.9 52 25.5S40.1 52 25.5 52-1 40.1-1 25.5 10.9-1 25.5-1z"/></defs><clipPath id="bxSVGID_2_"><use xlink:href="#bxSVGID_1_" overflow="visible"/></clipPath><g class="bxst1"><path class="bxst2" d="M52 17.8L88.3 62l-29 26.1-36.2-44.2L52 17.8z"/><path class="bxst3" d="M27.9 36.4l36.3 44.3-24.1 19.7L3.8 56.2l24.1-19.8z"/><path class="bxst4" d="M30.2 33.2l36.3 44.2-4.8 3.9L25.5 37l4.7-3.8z"/><path class="bxst5" d="M-.3 56.9l55.5-45.6 3.9 4.7L3.5 61.6l-3.8-4.7z"/></g><path class="bxst6" d="M25.5 14.4c-4.3 0-7.7 3.4-7.7 7.7 0 5.7 7.7 14.4 7.7 14.4s7.7-8.6 7.7-14.4c0-4.3-3.4-7.7-7.7-7.7zm0 10.5c-1.5 0-2.8-1.2-2.8-2.8 0-1.5 1.2-2.8 2.8-2.8 1.5 0 2.8 1.2 2.8 2.8 0 1.6-1.3 2.8-2.8 2.8z"/></svg><svg width="64" height="64" viewBox="0 0 46 46" id="logo" x="1494" y="1492"><path d="M4.69 31.58a21.267 21.267 0 0 1-2.184-9.4C2.51 10.47 12.043.945 23.756.945a21.122 21.122 0 0 1 15.028 6.23A21.112 21.112 0 0 1 45 22.2c-.004 11.71-9.534 21.238-21.244 21.238-3.112 0-6.19-.686-8.99-1.992L1 45.056 4.69 31.58z" fill="#FFF"/><path d="M36.513 9.44a17.925 17.925 0 0 0-12.76-5.287c-9.944 0-18.035 8.088-18.04 18.03a18 18 0 0 0 2.408 9.014L5.565 40.54l9.562-2.507a18.03 18.03 0 0 0 8.622 2.195h.008c9.94 0 18.032-8.09 18.037-18.03a17.92 17.92 0 0 0-5.28-12.758zM23.755 37.184h-.006a14.994 14.994 0 0 1-7.636-2.09l-.548-.324-5.674 1.487 1.515-5.53-.358-.567a14.946 14.946 0 0 1-2.293-7.976c.003-8.263 6.728-14.986 15-14.986a14.9 14.9 0 0 1 10.6 4.395 14.9 14.9 0 0 1 4.386 10.603c-.004 8.264-6.73 14.987-14.99 14.987z" fill="#123033"/><path d="M18.277 13.843c-.2-.012-.405-.01-.74.008a1.69 1.69 0 0 0-.682.186c-.16.082-.307.2-.54.418-.218.207-.345.388-.48.562A5.01 5.01 0 0 0 14.8 18.1a5.918 5.918 0 0 0 .606 2.594c.75 1.658 1.986 3.41 3.62 5.037a17.515 17.515 0 0 0 1.19 1.15 17.35 17.35 0 0 0 7.054 3.76s.54.13 1 .157l.045.002c.598.03 1.022-.025 1.022-.025a3.646 3.646 0 0 0 1.53-.424c.304-.162.448-.242.703-.403 0 0 .08-.052.23-.165.247-.183.4-.313.606-.527a2.12 2.12 0 0 0 .384-.555c.144-.3.288-.872.346-1.347.044-.362.03-.56.026-.683-.008-.198-.17-.4-.35-.487l-1.068-.48s-1.597-.696-2.574-1.142a.93.93 0 0 0-.325-.074c-.245-.015-.52.05-.694.233v-.004c-.006 0-.13.104-1.46 1.714-.07.088-.242.278-.54.26a.746.746 0 0 1-.132-.02 2.44 2.44 0 0 1-.352-.123c-.227-.096-.307-.133-.462-.2l-.01-.004a11.045 11.045 0 0 1-3.55-2.473 11.554 11.554 0 0 1-1.873-2.33l-.11-.173a1.664 1.664 0 0 1-.186-.376c-.068-.27.113-.486.113-.486s.447-.487.655-.753c.2-.255.374-.505.484-.683.216-.348.28-.706.17-.985A156.51 156.51 0 0 0 19.3 14.33c-.113-.245-.43-.424-.723-.458a5.474 5.474 0 0 0-.3-.03" fill="#123033"/></svg><svg width="44" height="44" viewBox="2 2 44 44" id="media-cancel" x="1558" y="1556"><path d="M31.377 18.1l-1.475-1.476-5.902 5.9-5.9-5.9-1.477 1.475 5.902 5.9-5.9 5.9 1.475 1.474 5.9-5.9 5.9 5.9 1.476-1.475-5.9-5.9 5.9-5.9z" fill="#FFF"/></svg><svg width="44" height="44" viewBox="2 2 44 44" id="media-disabled" x="1602" y="1600"><path d="M31.377 18.1l-1.475-1.476-5.902 5.9-5.9-5.9-1.477 1.475 5.902 5.9-5.9 5.9 1.475 1.474 5.9-5.9 5.9 5.9 1.476-1.475-5.9-5.9 5.9-5.9z" fill="#FFF" opacity=".4"/></svg><svg width="48" height="48" id="media-download" x="1646" y="1644"><path opacity=".3" d="M24 47.5C11.042 47.5.5 36.957.5 24 .5 11.042 11.042.5 24 .5 36.957.5 47.5 11.042 47.5 24c0 12.957-10.543 23.5-23.5 23.5z"/><path fill="#FFF" d="M31.367 24.616h-4.31v-9.322a.907.907 0 0 0-.905-.905h-4.304a.907.907 0 0 0-.905.902v9.322h-4.31c-.83 0-1.045.495-.478 1.1L22.97 33c.74.898 1.364.733 2.06 0l6.814-7.28c.568-.607.352-1.102-.477-1.102z"/></svg><svg width="48" height="48" id="media-download-noborder" x="1694" y="1692"><path fill="#FFF" d="M31.367 24.616h-4.31v-9.322a.907.907 0 0 0-.905-.905h-4.304a.907.907 0 0 0-.905.902v9.322h-4.31c-.83 0-1.045.495-.478 1.1L22.97 33c.74.898 1.364.733 2.06 0l6.814-7.28c.568-.607.352-1.102-.477-1.102z"/></svg><svg width="48" height="48" id="media-play" x="1742" y="1740"><path opacity=".3" d="M24 47.5C11.042 47.5.5 36.957.5 24 .5 11.042 11.042.5 24 .5 36.957.5 47.5 11.042 47.5 24c0 12.957-10.543 23.5-23.5 23.5z"/><path fill="#FFF" d="M33.543 22.874l-12.95-7.477c-1.298-.75-2.36-.136-2.36 1.362V31.71c0 1.498 1.062 2.11 2.36 1.362l12.95-7.477c1.297-.752 1.297-1.977 0-2.726z"/></svg><svg width="48" height="48" id="media-upload" x="1790" y="1788"><path opacity=".3" d="M24 47.5C11.042 47.5.5 36.957.5 24 .5 11.042 11.042.5 24 .5 36.957.5 47.5 11.042 47.5 24c0 12.957-10.543 23.5-23.5 23.5z"/><path fill="#FFF" d="M16.724 22.463h4.26v6.52c0 .493.404.895.896.895h4.254a.896.896 0 0 0 .894-.894v-6.52h4.26c.82 0 1.033-.49.472-1.09l-6.736-7.196c-.734-.887-1.35-.725-2.037 0l-6.736 7.197c-.556.598-.344 1.088.476 1.088zm15.078 9.965H16.198a.52.52 0 0 0-.52.52v.962c0 .286.233.52.52.52H31.8a.52.52 0 0 0 .52-.52v-.963a.518.518 0 0 0-.518-.52z"/></svg><svg width="48" height="48" id="media-upload-noborder" x="1838" y="1836"><path fill="#FFF" d="M16.724 22.463h4.26v6.52c0 .493.404.895.896.895h4.254a.896.896 0 0 0 .894-.894v-6.52h4.26c.82 0 1.033-.49.472-1.09l-6.736-7.196c-.734-.887-1.35-.725-2.037 0l-6.736 7.197c-.556.598-.344 1.088.476 1.088zm15.078 9.965H16.198a.52.52 0 0 0-.52.52v.962c0 .286.233.52.52.52H31.8a.52.52 0 0 0 .52-.52v-.963a.518.518 0 0 0-.518-.52z"/></svg><svg width="24" height="24" id="menu" x="1886" y="1884"><path d="M12 7a2 2 0 1 0 0-4 2 2 0 0 0 0 4zm0 2a2 2 0 1 0 0 4 2 2 0 0 0 0-4zm0 6a2 2 0 1 0 0 4 2 2 0 0 0 0-4z" opacity=".5"/></svg><svg width="28" height="28" viewBox="-2 -2 28 28" id="minus" x="1910" y="1908"><path d="M6.35 12.803v-1.605h11.24v1.605H6.35z" fill-opacity=".5"/></svg><svg width="16" height="18" id="msg-audio-light" x="1938" y="1936"><path fill="#FFF" d="M8 1a5.19 5.19 0 0 0-5.21 5.21v4.054c0 .983.752 1.736 1.736 1.736h1.737V7.368H3.947V6.21c0-2.256 1.795-4.05 4.053-4.05s4.053 1.795 4.053 4.053v1.16H9.737V12h1.737c.984 0 1.737-.753 1.737-1.737V6.21A5.19 5.19 0 0 0 8 1z"/></svg><svg width="16" height="15" id="msg-check" x="1954" y="1954"><path d="M10.91 3.316l-.478-.372a.365.365 0 0 0-.51.063L4.566 9.88a.32.32 0 0 1-.484.032L1.892 7.77a.366.366 0 0 0-.516.005l-.423.433a.364.364 0 0 0 .006.514l3.255 3.185a.32.32 0 0 0 .484-.033l6.272-8.048a.365.365 0 0 0-.063-.51z" fill="#92a58c"/></svg><svg width="16" height="15" id="msg-check-light" x="1970" y="1969"><path d="M10.91 3.316l-.478-.372a.365.365 0 0 0-.51.063L4.566 9.88a.32.32 0 0 1-.484.032L1.892 7.77a.366.366 0 0 0-.516.005l-.423.433a.364.364 0 0 0 .006.514l3.255 3.185a.32.32 0 0 0 .484-.033l6.272-8.048a.365.365 0 0 0-.063-.51z" fill="#FFF"/></svg><svg width="16" height="15" id="msg-dblcheck" x="1986" y="1984"><path d="M15.01 3.316l-.478-.372a.365.365 0 0 0-.51.063L8.666 9.88a.32.32 0 0 1-.484.032l-.358-.325a.32.32 0 0 0-.484.032l-.378.48a.418.418 0 0 0 .036.54l1.32 1.267a.32.32 0 0 0 .484-.034l6.272-8.048a.366.366 0 0 0-.064-.512zm-4.1 0l-.478-.372a.365.365 0 0 0-.51.063L4.566 9.88a.32.32 0 0 1-.484.032L1.892 7.77a.366.366 0 0 0-.516.005l-.423.433a.364.364 0 0 0 .006.514l3.255 3.185a.32.32 0 0 0 .484-.033l6.272-8.048a.365.365 0 0 0-.063-.51z" fill="#92a58c"/></svg><svg width="16" height="15" id="msg-dblcheck-ack" x="2002" y="1999"><path d="M15.01 3.316l-.478-.372a.365.365 0 0 0-.51.063L8.666 9.88a.32.32 0 0 1-.484.032l-.358-.325a.32.32 0 0 0-.484.032l-.378.48a.418.418 0 0 0 .036.54l1.32 1.267a.32.32 0 0 0 .484-.034l6.272-8.048a.366.366 0 0 0-.064-.512zm-4.1 0l-.478-.372a.365.365 0 0 0-.51.063L4.566 9.88a.32.32 0 0 1-.484.032L1.892 7.77a.366.366 0 0 0-.516.005l-.423.433a.364.364 0 0 0 .006.514l3.255 3.185a.32.32 0 0 0 .484-.033l6.272-8.048a.365.365 0 0 0-.063-.51z" fill="#4fc3f7"/></svg><svg width="16" height="15" id="msg-dblcheck-ack-light" x="2018" y="2014"><path d="M15.01 3.316l-.478-.372a.365.365 0 0 0-.51.063L8.666 9.88a.32.32 0 0 1-.484.032l-.358-.325a.32.32 0 0 0-.484.032l-.378.48a.418.418 0 0 0 .036.54l1.32 1.267a.32.32 0 0 0 .484-.034l6.272-8.048a.366.366 0 0 0-.064-.512zm-4.1 0l-.478-.372a.365.365 0 0 0-.51.063L4.566 9.88a.32.32 0 0 1-.484.032L1.892 7.77a.366.366 0 0 0-.516.005l-.423.433a.364.364 0 0 0 .006.514l3.255 3.185a.32.32 0 0 0 .484-.033l6.272-8.048a.365.365 0 0 0-.063-.51z" fill="#4fc3f7"/></svg><svg width="16" height="15" id="msg-dblcheck-light" x="2034" y="2029"><path d="M15.01 3.316l-.478-.372a.365.365 0 0 0-.51.063L8.666 9.88a.32.32 0 0 1-.484.032l-.358-.325a.32.32 0 0 0-.484.032l-.378.48a.418.418 0 0 0 .036.54l1.32 1.267a.32.32 0 0 0 .484-.034l6.272-8.048a.366.366 0 0 0-.064-.512zm-4.1 0l-.478-.372a.365.365 0 0 0-.51.063L4.566 9.88a.32.32 0 0 1-.484.032L1.892 7.77a.366.366 0 0 0-.516.005l-.423.433a.364.364 0 0 0 .006.514l3.255 3.185a.32.32 0 0 0 .484-.033l6.272-8.048a.365.365 0 0 0-.063-.51z" fill="#FFF"/></svg><svg width="16" height="15" id="msg-time" x="2050" y="2044"><path d="M9.75 7.713H8.244V5.36a.5.5 0 0 0-.5-.5H7.65a.5.5 0 0 0-.5.5v2.946a.5.5 0 0 0 .5.5h2.1a.5.5 0 0 0 .5-.5v-.093a.5.5 0 0 0-.5-.5zm0-5.263h-3.5c-1.82 0-3.3 1.48-3.3 3.3v3.5c0 1.82 1.48 3.3 3.3 3.3h3.5c1.82 0 3.3-1.48 3.3-3.3v-3.5c0-1.82-1.48-3.3-3.3-3.3zm2 6.8a2 2 0 0 1-2 2h-3.5a2 2 0 0 1-2-2v-3.5a2 2 0 0 1 2-2h3.5a2 2 0 0 1 2 2v3.5z" fill="#859479"/></svg><svg width="16" height="15" id="msg-time-light" x="2066" y="2059"><path d="M9.75 7.713H8.244V5.36a.5.5 0 0 0-.5-.5H7.65a.5.5 0 0 0-.5.5v2.946a.5.5 0 0 0 .5.5h2.1a.5.5 0 0 0 .5-.5v-.093a.5.5 0 0 0-.5-.5zm0-5.263h-3.5c-1.82 0-3.3 1.48-3.3 3.3v3.5c0 1.82 1.48 3.3 3.3 3.3h3.5c1.82 0 3.3-1.48 3.3-3.3v-3.5c0-1.82-1.48-3.3-3.3-3.3zm2 6.8a2 2 0 0 1-2 2h-3.5a2 2 0 0 1-2-2v-3.5a2 2 0 0 1 2-2h3.5a2 2 0 0 1 2 2v3.5z" fill="#FFF"/></svg><svg width="16" height="18" id="msg-video-light" x="2082" y="2074"><path fill="#FFF" d="M14.987 2.668l-3.48 3.09V3.49a1.19 1.19 0 0 0-1.19-1.188H1.69A1.19 1.19 0 0 0 .5 3.49v7.137c0 .657.532 1.19 1.19 1.19h8.628a1.19 1.19 0 0 0 1.19-1.19v-2.3l3.48 3.09v-8.75z"/></svg><svg width="16" height="18" id="muted" x="2098" y="2092"><path d="M11.52 9.206c0-1.4-.778-2.567-1.944-3.11v1.71L11.52 9.75v-.544zm1.945 0c0 .7-.156 1.4-.39 2.022l1.168 1.167c.544-.933.778-2.1.778-3.267 0-3.344-2.33-6.144-5.44-6.844v1.633c2.254.778 3.887 2.8 3.887 5.29zm-11.433-7L1.02 3.216l3.656 3.657H1.02v4.667h3.11l3.89 3.89v-5.212l3.344 3.344c-.544.39-1.09.7-1.79.933v1.633a6.64 6.64 0 0 0 2.88-1.4l1.555 1.556 1.01-1.01-7-7-5.99-6.068zm5.988.778L6.387 4.617 8.02 6.25V2.984z" opacity=".25"/></svg><svg width="24" height="24" id="pencil" x="2114" y="2110"><path d="M4 17.6V21h3.4l9.8-9.9-3.4-3.4L4 17.6zm15.8-9.1c.4-.4.4-.9 0-1.3l-2.1-2.1c-.4-.4-.9-.4-1.3 0l-1.6 1.6 3.4 3.4 1.6-1.6z" opacity=".4"/></svg><svg width="50" height="50" viewBox="-3 -3 50 50" id="platform-android" x="2138" y="2134"><path fill="#FFF" d="M31.836 16.997c-.9 0-1.63.742-1.63 1.656v6.473c0 .915.73 1.656 1.63 1.656.9 0 1.63-.742 1.63-1.656v-6.473c0-.914-.73-1.656-1.63-1.656zm-19.672 0c-.9 0-1.63.742-1.63 1.656v6.473c0 .915.73 1.656 1.63 1.656s1.63-.742 1.63-1.656v-6.473c0-.914-.73-1.656-1.63-1.656zm2.612 11.876c0 .703.57 1.272 1.272 1.272H17.5v3.6c0 .916.73 1.657 1.632 1.657s1.63-.742 1.63-1.656v-3.6h2.54v3.6c0 .915.73 1.656 1.63 1.656.9 0 1.63-.742 1.63-1.656v-3.6h1.454c.702 0 1.272-.57 1.272-1.273V17.047H14.776v11.826zM25.44 10.92l1.34-1.947c.08-.116.06-.268-.043-.34-.104-.07-.253-.035-.332.08l-1.393 2.022c-.917-.362-1.937-.563-3.01-.563s-2.095.202-3.012.563l-1.393-2.02c-.08-.117-.228-.152-.332-.08-.105.07-.125.223-.045.338l1.34 1.946c-2.13.99-3.625 2.872-3.815 5.07h14.512c-.19-2.197-1.686-4.08-3.817-5.073zm-6.5 3.066a.803.803 0 1 1 0-1.606.803.803 0 0 1 0 1.606zm6.22 0a.803.803 0 1 1 .804-.803c0 .444-.36.803-.803.803z"/></svg><svg width="50" height="50" viewBox="-3 -3 50 50" id="platform-bb" x="2188" y="2184"><path fill="#FFF" d="M15.23 13.582h-3.142l-.894 4.135h3.275c2.555 0 3.283-1.21 3.283-2.337 0-.795-.485-1.798-2.526-1.798zm8.464 0h-3.142l-.892 4.135h3.273c2.56 0 3.286-1.21 3.286-2.337 0-.795-.488-1.798-2.528-1.798zm-9.6 6.22h-3.14l-.894 4.14h3.275c2.56 0 3.287-1.216 3.287-2.34 0-.792-.486-1.8-2.527-1.8zm8.466 0h-3.142l-.894 4.14H21.8c2.56 0 3.286-1.216 3.286-2.34 0-.792-.487-1.8-2.526-1.8zm8.855-2.524h-3.142l-.894 4.138h3.27c2.56 0 3.288-1.21 3.288-2.337 0-.797-.487-1.804-2.526-1.804zm-1.22 6.483h-3.142l-.893 4.14h3.275c2.558 0 3.285-1.214 3.285-2.337 0-.793-.485-1.8-2.525-1.8zm-8.85 2.52h-3.142l-.893 4.14h3.275c2.558 0 3.285-1.212 3.285-2.335 0-.796-.486-1.803-2.524-1.803z"/></svg><svg width="50" height="50" id="platform-bb10" x="2238" y="2234"><path fill="#FFF" d="M32.23 12.687l.066.956.982-.227-.788 4.166h1.17l1.012-5.35h-.808l-1.633.455zm5.977-.51c-1.432 0-2.63 1.208-2.92 2.748l-.004.015c-.29 1.54.43 2.732 1.87 2.732 1.438 0 2.628-1.207 2.92-2.747l.003-.015c.292-1.54-.445-2.732-1.87-2.732zm.65 2.748l-.002.015c-.182.964-.77 1.677-1.487 1.677s-1.05-.72-.866-1.693l.003-.015c.183-.974.78-1.68 1.487-1.68.708 0 1.048.73.866 1.693zM22.664 29.688h-2.93l-.83 3.853h3.05c2.384 0 3.062-1.13 3.062-2.173 0-.74-.453-1.677-2.352-1.677zm8.245-2.346h-2.93l-.83 3.85h3.05c2.382 0 3.06-1.13 3.06-2.177 0-.738-.453-1.673-2.353-1.673zm1.14-6.037h-2.93l-.835 3.853h3.05c2.383 0 3.062-1.128 3.064-2.178 0-.738-.454-1.675-2.353-1.675zm-8.25 2.35h-2.93l-.835 3.854h3.05c2.385 0 3.064-1.134 3.064-2.18-.003-.738-.455-1.676-2.354-1.676zm-7.89 0h-2.93l-.83 3.854h3.05c2.38 0 3.06-1.134 3.06-2.18 0-.738-.45-1.676-2.35-1.676zm8.942-5.79h-2.93l-.83 3.85h3.05c2.384 0 3.06-1.128 3.062-2.177 0-.738-.45-1.674-2.352-1.674zm-7.888 0h-2.927l-.832 3.85h3.05c2.385 0 3.063-1.128 3.063-2.177 0-.738-.454-1.674-2.355-1.674z"/></svg><svg viewBox="13 -13 50 50" width="50" height="50" id="platform-iphone" x="2288" y="2284"><path fill-rule="evenodd" clip-rule="evenodd" fill="#FFF" d="M41.6 1.6c.8-1 1.5-2.5 1.3-3.9-1.3 0-2.7.8-3.6 1.9-.8.9-1.5 2.4-1.3 3.8 1.3 0 2.7-.8 3.6-1.8zM45.2 13c-.4-.8-.6-2.1-.4-3.1.2-1.3 1-2.6 1.7-3.1.1-.2.6-.5.9-.7-1.1-1.6-2.8-2.4-4.6-2.4-1.8-.1-3.6 1.1-4.6 1.1-1 0-2.4-1.1-4-1.1h-.3C31.8 3.8 30 5 29 6.8c-.4.7-.9 2.2-1 3.2-.1.6 0 2.3.1 3 .1.8.5 2.3.8 3 .3.8 1.1 2.4 1.6 3.1 1 1.5 2.3 3.2 3.9 3.1 1.6-.1 2.1-1 4-1s2.4 1 4.1 1c1.7-.1 2.7-1.6 3.8-3.1.5-.8 1.3-2.3 1.6-3.1 0-.1.1-.2.1-.3-1.1-.2-2.3-1.7-2.8-2.7m-17.1 0"/></svg><svg width="50" height="50" id="platform-s40" x="2338" y="2334"><path fill="#FFF" d="M15.22 18.037l-.004 3.097-2.696-3.102h-2.1l-.017.005.01 4.12 1.213-.01.005-3.102 2.704 3.113h2.1l-.004-4.126-1.208.005zm15.08 4.12l-.01-4.12c-.42-.012-.846-.006-1.27-.006l-.012.014.005 4.115H30.3zm-1.81-.01l-2.656-2.09-.005-.023 2.356-1.998h-1.713l-2.06 1.864-.157.13-.006-.006v-1.987h-1.287v4.12h1.287v-2.094l.01-.016 2.36 2.112 1.87-.016zm-6.63-.14c.258-.146.47-.41.485-.712l.005-2.24a1.07 1.07 0 0 0-.092-.48c-.286-.528-.862-.566-1.395-.587l-1.844-.01c-.48.02-.98 0-1.398.17-.253.136-.517.4-.528.7l-.01 2.376.042.26c.086.317.425.58.743.63.716.128 1.327.08 2.097.09.653-.015 1.332.045 1.892-.198zm-3.59-.965c-.027-.61-.01-1.233-.01-1.847.015-.124.15-.167.258-.188l2.48.005c.07.02.15.032.183.113l.02.135-.006 1.74c-.108.2-.345.15-.544.167l-2.147-.005c-.08-.028-.194-.017-.232-.12zm16.56.415c.12.237.25.463.378.7h1.422v-.016l-2.246-4.1H32.72l-2.267 4.12 1.438-.01.39-.7h2.527l.026.01zm-2.078-.916l.792-1.47.792 1.47h-1.584zm-9.11 6.956a2.427 2.427 0 0 0-.662-.505 4.714 4.714 0 0 0-.834-.334l-1.107-.34c-.32-.098-.536-.198-.654-.3a.495.495 0 0 1-.176-.395c0-.21.094-.364.28-.46.187-.098.435-.147.743-.147.195 0 .385.018.572.055.187.036.36.08.517.128.158.05.3.102.426.158.125.057.228.106.31.146l.74-1.74c-.29-.197-.674-.36-1.15-.49a5.717 5.717 0 0 0-1.514-.194c-.966 0-1.726.233-2.282.7-.556.467-.834 1.134-.834 2.002 0 .332.05.632.152.9.1.268.243.503.426.706.182.203.397.377.645.523.25.145.52.267.82.364l1.135.355c.35.106.584.215.706.33a.56.56 0 0 1 .184.425c0 .234-.097.41-.292.522-.194.114-.46.17-.802.17A3.2 3.2 0 0 1 20.3 30a5.088 5.088 0 0 1-.627-.178 6.164 6.164 0 0 1-.517-.207 3.97 3.97 0 0 1-.347-.176l-.83 1.75c.13.073.29.16.476.256.186.097.406.19.657.274a5.712 5.712 0 0 0 1.874.3c1.022 0 1.82-.244 2.397-.73.576-.488.864-1.18.864-2.08 0-.383-.056-.714-.165-.994a2.262 2.262 0 0 0-.443-.725zm6.89-.425h-2.105v1.254h-1.23l2.666-5.05h-2.288L24.8 28.53v1.667h3.626v1.63h2.105v-1.63h.95V28.37h-.95v-1.3zm8.244-1.393c-.15-.548-.37-1.012-.663-1.393a2.89 2.89 0 0 0-1.095-.876c-.438-.203-.945-.304-1.52-.304s-1.084.103-1.522.31c-.438.207-.803.5-1.095.882-.29.38-.51.846-.66 1.393a6.982 6.982 0 0 0-.226 1.843c0 1.428.288 2.53.864 3.304.576.775 1.456 1.162 2.64 1.162 1.177 0 2.056-.39 2.636-1.175.58-.783.87-1.88.87-3.292a7.07 7.07 0 0 0-.227-1.856zm-2.373 3.85c-.19.415-.493.622-.907.622-.422 0-.726-.205-.913-.61-.187-.41-.28-1.078-.28-2.007 0-.92.097-1.58.292-1.98.195-.4.495-.6.9-.6.407 0 .707.2.902.6.195.4.292 1.06.292 1.98 0 .913-.097 1.577-.288 1.993z"/></svg><svg width="50" height="50" viewBox="-3 -3 50 50" id="platform-s60" x="2388" y="2384"><path fill="#FFF" d="M12.22 15.037l-.004 3.097-2.696-3.102h-2.1l-.017.005.01 4.12 1.213-.01.005-3.102 2.704 3.113h2.1l-.004-4.126-1.208.005zm15.08 4.12l-.01-4.12c-.42-.012-.846-.006-1.27-.006l-.012.014.005 4.115H27.3zm-1.81-.01l-2.656-2.09-.005-.023 2.356-1.998h-1.713l-2.06 1.864-.157.13-.006-.006v-1.987h-1.287v4.12h1.287v-2.094l.01-.016 2.36 2.112 1.87-.016zm-6.63-.14c.258-.146.47-.41.485-.712l.005-2.24a1.07 1.07 0 0 0-.092-.48c-.286-.528-.862-.566-1.395-.587l-1.844-.01c-.48.02-.98 0-1.398.17-.253.136-.517.4-.528.7l-.01 2.376.042.26c.086.317.425.58.743.63.716.128 1.327.08 2.097.09.653-.015 1.332.045 1.892-.198zm-3.59-.965c-.027-.61-.01-1.233-.01-1.847.015-.124.15-.167.258-.188l2.48.005c.07.02.15.032.183.113l.02.135-.006 1.74c-.108.2-.345.15-.544.167l-2.147-.005c-.08-.028-.194-.017-.232-.12zm16.56.415c.12.237.25.463.378.7h1.422v-.016l-2.246-4.1H29.72l-2.267 4.12 1.438-.01.39-.7h2.527l.026.01zm-2.078-.916l.792-1.47.792 1.47h-1.584zm-9.122 6.95c-.187-.202-.408-.37-.664-.505s-.534-.246-.835-.335l-1.106-.34c-.317-.1-.534-.2-.652-.3s-.176-.235-.176-.397c0-.21.093-.365.28-.462.187-.096.435-.144.743-.144.194 0 .385.018.572.055.186.037.36.08.517.13.157.05.3.1.426.16.126.055.23.104.31.144l.744-1.743c-.292-.194-.677-.356-1.152-.487a5.73 5.73 0 0 0-1.518-.196c-.967 0-1.73.234-2.285.7-.557.468-.835 1.137-.835 2.006 0 .333.05.634.152.902s.244.504.427.707c.182.203.397.378.645.524.248.146.522.268.823.366l1.134.352c.35.106.585.215.707.33a.56.56 0 0 1 .182.426c0 .236-.097.41-.292.524s-.463.17-.805.17a3.21 3.21 0 0 1-.69-.072c-.223-.05-.432-.108-.627-.177s-.368-.138-.518-.207a3.55 3.55 0 0 1-.347-.177l-.827 1.754c.13.073.288.158.475.256.188.096.407.19.66.273a5.727 5.727 0 0 0 1.876.298c1.024 0 1.824-.242 2.4-.73.578-.486.866-1.18.866-2.083a2.71 2.71 0 0 0-.166-.993 2.25 2.25 0 0 0-.443-.726zm7.472-.785a2.54 2.54 0 0 0-.865-.542 2.822 2.822 0 0 0-1-.183c-.284 0-.58.04-.89.115s-.57.213-.78.408c.114-.503.335-.885.664-1.145s.724-.39 1.18-.39c.18 0 .354.016.53.05.174.032.332.072.474.12a3.768 3.768 0 0 1 .616.27l.743-1.66a3.66 3.66 0 0 0-1.097-.493 5.437 5.437 0 0 0-1.414-.165c-.633 0-1.198.122-1.693.366-.498.244-.91.587-1.245 1.03s-.587.973-.762 1.59-.262 1.305-.262 2.06c0 .586.07 1.116.208 1.592.137.475.346.882.627 1.22.28.336.632.596 1.054.78s.92.273 1.5.273c.46 0 .892-.07 1.29-.21s.744-.348 1.036-.617c.293-.27.52-.598.683-.988a3.47 3.47 0 0 0 .242-1.34c0-.472-.077-.887-.232-1.244a2.695 2.695 0 0 0-.607-.895zm-1.725 3.206c-.207.208-.47.31-.786.31-.33 0-.586-.116-.765-.35-.18-.237-.268-.55-.268-.94s.108-.69.323-.9.46-.32.736-.32c.366 0 .636.12.81.355.176.236.263.54.263.914 0 .413-.106.724-.31.93zm9.995-4.24c-.15-.55-.372-1.015-.664-1.397s-.658-.674-1.097-.878c-.436-.203-.944-.305-1.52-.305s-1.086.103-1.525.31c-.44.207-.804.502-1.097.884s-.514.847-.664 1.396a7 7 0 0 0-.226 1.847c0 1.43.288 2.533.865 3.31S31.903 29 33.088 29c1.178 0 2.058-.392 2.64-1.176s.87-1.883.87-3.297c0-.69-.074-1.31-.224-1.86zm-2.377 3.854c-.19.417-.494.626-.908.626-.423 0-.727-.205-.914-.613-.187-.408-.28-1.078-.28-2.008 0-.924.098-1.586.293-1.986.195-.4.495-.6.902-.6.406 0 .707.2.902.6s.293 1.06.293 1.984c-.002.912-.097 1.58-.288 1.994z"/></svg><svg width="50" height="50" viewBox="-3 -3 50 50" id="platform-wp" x="2438" y="2434"><path fill="#FFF" d="M20.957 14.15v7.434h10.26v-8.932l-10.26 1.497zm-8.173 7.434h7.45v-7.33l-7.45 1.087v6.246zm0 7.044l7.45 1.1v-7.422h-7.45v6.322zm8.173 1.206l10.26 1.514v-9.042h-10.26v7.528z"/></svg><svg width="28" height="28" viewBox="-2 -2 28 28" id="plus" x="2488" y="2484"><path d="M17.618 12.803h-4.816v4.816h-1.605V12.8H6.38v-1.605h4.816V6.38H12.8v4.817h4.817v1.606z" fill-opacity=".5"/></svg><svg width="24" height="24" id="ptt" x="2516" y="2512"><path opacity=".4" d="M12 14.942c2 0 3.53-1.53 3.53-3.53V4.35c0-2-1.53-3.53-3.53-3.53S8.47 2.35 8.47 4.35v7.06c0 2.002 1.53 3.532 3.53 3.532zm6.237-3.53c0 3.53-2.942 6.002-6.237 6.002s-6.237-2.47-6.237-6.002H3.76c0 4 3.18 7.297 7.062 7.885v3.884h2.354V19.3c3.884-.588 7.06-3.884 7.06-7.885h-2z"/></svg><svg width="12" height="20" id="ptt-chat" x="2540" y="2536"><path d="M6 11.745a2 2 0 0 0 2-2V4.94a2 2 0 0 0-4 0v4.804a2 2 0 0 0 2 2zm3.494-2A3.5 3.5 0 0 1 6 13.238a3.5 3.5 0 0 1-3.496-3.496H1.11c0 2.458 1.828 4.477 4.192 4.82v2.494h1.395V14.56c2.364-.34 4.193-2.36 4.193-4.82H9.494z" fill="#263238"/></svg><svg width="19" height="26" id="ptt-in-blue" x="2552" y="2556"><path d="M9.217 24.4c-1.158 0-2.1-.94-2.1-2.1v-2.365c-2.646-.848-4.652-3.146-5.06-5.958l-.053-.357L2 13.54c-.02-.56.183-1.09.572-1.493.39-.404.94-.637 1.507-.637h.3c.25 0 .495.044.72.125v-6.27A4.27 4.27 0 0 1 9.368 1a4.27 4.27 0 0 1 4.265 4.265v6.27c.226-.08.47-.124.723-.124h.3c.564 0 1.112.236 1.5.64s.598.966.572 1.53c0 .004 0 .123-.08.6-.47 2.702-2.46 4.916-5.03 5.747v2.378c0 1.158-.94 2.1-2.1 2.1h-.3z" fill="#FFF"/><path d="M9.367 15.668a2.765 2.765 0 0 0 2.765-2.765V5.265a2.765 2.765 0 0 0-5.53 0v7.638a2.764 2.764 0 0 0 2.765 2.765zm5.288-2.758h-.3a.64.64 0 0 0-.63.598l-.06.285a4.397 4.397 0 0 1-4.298 3.505 4.397 4.397 0 0 1-4.304-3.53l-.055-.278a.628.628 0 0 0-.63-.58h-.3c-.33 0-.59.26-.578.574l.04.278a5.894 5.894 0 0 0 5.076 4.978v3.562c0 .33.27.6.6.6h.3c.33 0 .6-.27.6-.6V18.73c2.557-.33 4.613-2.286 5.05-4.81.058-.327.062-.41.062-.41a.57.57 0 0 0-.573-.6z" fill="#03a9f4"/></svg><svg width="19" height="26" id="ptt-in-gray" x="2571" y="2582"><path d="M9.217 24.4c-1.158 0-2.1-.94-2.1-2.1v-2.365c-2.646-.848-4.652-3.146-5.06-5.958l-.053-.357L2 13.54c-.02-.56.183-1.09.572-1.493.39-.404.94-.637 1.507-.637h.3c.25 0 .495.044.72.125v-6.27A4.27 4.27 0 0 1 9.368 1a4.27 4.27 0 0 1 4.265 4.265v6.27c.226-.08.47-.124.723-.124h.3c.564 0 1.112.236 1.5.64s.598.966.572 1.53c0 .004 0 .123-.08.6-.47 2.702-2.46 4.916-5.03 5.747v2.378c0 1.158-.94 2.1-2.1 2.1h-.3z" fill="#FFF"/><path d="M9.367 15.668a2.765 2.765 0 0 0 2.765-2.765V5.265a2.765 2.765 0 0 0-5.53 0v7.638a2.764 2.764 0 0 0 2.765 2.765zm5.288-2.758h-.3a.64.64 0 0 0-.63.598l-.06.285a4.397 4.397 0 0 1-4.298 3.505 4.397 4.397 0 0 1-4.304-3.53l-.055-.278a.628.628 0 0 0-.63-.58h-.3c-.33 0-.59.26-.578.574l.04.278a5.894 5.894 0 0 0 5.076 4.978v3.562c0 .33.27.6.6.6h.3c.33 0 .6-.27.6-.6V18.73c2.557-.33 4.613-2.286 5.05-4.81.058-.327.062-.41.062-.41a.57.57 0 0 0-.573-.6z" fill="#888e92"/></svg><svg width="19" height="26" id="ptt-in-green" x="2590" y="2608"><path d="M9.217 24.4c-1.158 0-2.1-.94-2.1-2.1v-2.365c-2.646-.848-4.652-3.146-5.06-5.958l-.053-.357L2 13.54c-.02-.56.183-1.09.572-1.493.39-.404.94-.637 1.507-.637h.3c.25 0 .495.044.72.125v-6.27A4.27 4.27 0 0 1 9.368 1a4.27 4.27 0 0 1 4.265 4.265v6.27c.226-.08.47-.124.723-.124h.3c.564 0 1.112.236 1.5.64s.598.966.572 1.53c0 .004 0 .123-.08.6-.47 2.702-2.46 4.916-5.03 5.747v2.378c0 1.158-.94 2.1-2.1 2.1h-.3z" fill="#FFF"/><path d="M9.367 15.668a2.765 2.765 0 0 0 2.765-2.765V5.265a2.765 2.765 0 0 0-5.53 0v7.638a2.764 2.764 0 0 0 2.765 2.765zm5.288-2.758h-.3a.64.64 0 0 0-.63.598l-.06.285a4.397 4.397 0 0 1-4.298 3.505 4.397 4.397 0 0 1-4.304-3.53l-.055-.278a.628.628 0 0 0-.63-.58h-.3c-.33 0-.59.26-.578.574l.04.278a5.894 5.894 0 0 0 5.076 4.978v3.562c0 .33.27.6.6.6h.3c.33 0 .6-.27.6-.6V18.73c2.557-.33 4.613-2.286 5.05-4.81.058-.327.062-.41.062-.41a.57.57 0 0 0-.573-.6z" fill="#09d261"/></svg><svg width="19" height="26" id="ptt-out-blue" x="2609" y="2634"><path d="M9.217 24.4c-1.158 0-2.1-.94-2.1-2.1v-2.365c-2.646-.848-4.652-3.146-5.06-5.958l-.053-.357L2 13.54c-.02-.56.183-1.09.572-1.493.39-.404.94-.637 1.507-.637h.3c.25 0 .495.044.72.125v-6.27A4.27 4.27 0 0 1 9.368 1a4.27 4.27 0 0 1 4.265 4.265v6.27c.226-.08.47-.124.723-.124h.3c.564 0 1.112.236 1.5.64s.598.966.572 1.53c0 .004 0 .123-.08.6-.47 2.702-2.46 4.916-5.03 5.747v2.378c0 1.158-.94 2.1-2.1 2.1h-.3z" fill="#ddf6c9"/><path d="M9.367 15.668a2.765 2.765 0 0 0 2.765-2.765V5.265a2.765 2.765 0 0 0-5.53 0v7.638a2.764 2.764 0 0 0 2.765 2.765zm5.288-2.758h-.3a.64.64 0 0 0-.63.598l-.06.285a4.397 4.397 0 0 1-4.298 3.505 4.397 4.397 0 0 1-4.304-3.53l-.055-.278a.628.628 0 0 0-.63-.58h-.3c-.33 0-.59.26-.578.574l.04.278a5.894 5.894 0 0 0 5.076 4.978v3.562c0 .33.27.6.6.6h.3c.33 0 .6-.27.6-.6V18.73c2.557-.33 4.613-2.286 5.05-4.81.058-.327.062-.41.062-.41a.57.57 0 0 0-.573-.6z" fill="#03a9f4"/></svg><svg width="19" height="26" id="ptt-out-gray" x="2628" y="2660"><path d="M9.217 24.4c-1.158 0-2.1-.94-2.1-2.1v-2.365c-2.646-.848-4.652-3.146-5.06-5.958l-.053-.357L2 13.54c-.02-.56.183-1.09.572-1.493.39-.404.94-.637 1.507-.637h.3c.25 0 .495.044.72.125v-6.27A4.27 4.27 0 0 1 9.368 1a4.27 4.27 0 0 1 4.265 4.265v6.27c.226-.08.47-.124.723-.124h.3c.564 0 1.112.236 1.5.64s.598.966.572 1.53c0 .004 0 .123-.08.6-.47 2.702-2.46 4.916-5.03 5.747v2.378c0 1.158-.94 2.1-2.1 2.1h-.3z" fill="#ddf6c9"/><path d="M9.367 15.668a2.765 2.765 0 0 0 2.765-2.765V5.265a2.765 2.765 0 0 0-5.53 0v7.638a2.764 2.764 0 0 0 2.765 2.765zm5.288-2.758h-.3a.64.64 0 0 0-.63.598l-.06.285a4.397 4.397 0 0 1-4.298 3.505 4.397 4.397 0 0 1-4.304-3.53l-.055-.278a.628.628 0 0 0-.63-.58h-.3c-.33 0-.59.26-.578.574l.04.278a5.894 5.894 0 0 0 5.076 4.978v3.562c0 .33.27.6.6.6h.3c.33 0 .6-.27.6-.6V18.73c2.557-.33 4.613-2.286 5.05-4.81.058-.327.062-.41.062-.41a.57.57 0 0 0-.573-.6z" fill="#798a79"/></svg><svg width="19" height="26" id="ptt-out-green" x="2647" y="2686"><path d="M9.217 24.4c-1.158 0-2.1-.94-2.1-2.1v-2.365c-2.646-.848-4.652-3.146-5.06-5.958l-.053-.357L2 13.54c-.02-.56.183-1.09.572-1.493.39-.404.94-.637 1.507-.637h.3c.25 0 .495.044.72.125v-6.27A4.27 4.27 0 0 1 9.368 1a4.27 4.27 0 0 1 4.265 4.265v6.27c.226-.08.47-.124.723-.124h.3c.564 0 1.112.236 1.5.64s.598.966.572 1.53c0 .004 0 .123-.08.6-.47 2.702-2.46 4.916-5.03 5.747v2.378c0 1.158-.94 2.1-2.1 2.1h-.3z" fill="#ddf6c9"/><path d="M9.367 15.668a2.765 2.765 0 0 0 2.765-2.765V5.265a2.765 2.765 0 0 0-5.53 0v7.638a2.764 2.764 0 0 0 2.765 2.765zm5.288-2.758h-.3a.64.64 0 0 0-.63.598l-.06.285a4.397 4.397 0 0 1-4.298 3.505 4.397 4.397 0 0 1-4.304-3.53l-.055-.278a.628.628 0 0 0-.63-.58h-.3c-.33 0-.59.26-.578.574l.04.278a5.894 5.894 0 0 0 5.076 4.978v3.562c0 .33.27.6.6.6h.3c.33 0 .6-.27.6-.6V18.73c2.557-.33 4.613-2.286 5.05-4.81.058-.327.062-.41.062-.41a.57.57 0 0 0-.573-.6z" fill="#09d261"/></svg><svg width="24" height="24" id="refresh" x="2666" y="2712"><path d="M17.6 6.4C16.2 4.9 14.2 4 12 4c-4.4 0-8 3.6-8 8s3.6 8 8 8c3.7 0 6.8-2.6 7.7-6h-2.1c-.8 2.3-3 4-5.6 4-3.3 0-6-2.7-6-6s2.7-6 6-6c1.7 0 3.1.7 4.2 1.8L13 11h7V4l-2.4 2.4z" fill="#263238"/></svg><svg width="32" height="32" id="refresh-l-light" x="2690" y="2736"><path d="M16 7.444V1.74l7.13 7.13L16 16v-5.704c-4.706 0-8.556 3.85-8.556 8.556 0 4.706 3.85 8.556 8.556 8.556s8.556-3.85 8.556-8.556h2.852c0 6.275-5.134 11.408-11.408 11.408-6.274 0-11.408-5.133-11.408-11.408C4.592 12.578 9.726 7.444 16 7.444z" fill="#FFF"/></svg><svg width="24" height="24" id="refresh-light" x="2722" y="2768"><path fill="#FFF" d="M17.6 6.4C16.2 4.9 14.2 4 12 4c-4.4 0-8 3.6-8 8s3.6 8 8 8c3.7 0 6.8-2.6 7.7-6h-2.1c-.8 2.3-3 4-5.6 4-3.3 0-6-2.7-6-6s2.7-6 6-6c1.7 0 3.1.7 4.2 1.8L13 11h7V4l-2.4 2.4z"/></svg><svg width="35" height="35" id="round-send" x="2746" y="2792"><circle opacity=".8" fill="none" stroke="#09D261" stroke-miterlimit="10" cx="17.5" cy="17.5" r="16.75"/><path opacity=".8" fill="#09D261" d="M14.3 21.4l-4.2-4.2-1.4 1.4 5.6 5.6 12-12-1.4-1.4z"/></svg><svg width="35" height="35" id="round-send-inv" x="2781" y="2827"><path opacity=".8" fill="#09D261" d="M17.5.25C7.988.25.25 7.988.25 17.5S7.988 34.75 17.5 34.75s17.25-7.738 17.25-17.25S27.012.25 17.5.25zM14.3 24.2l-5.6-5.6 1.4-1.4 4.2 4.2 10.6-10.6 1.4 1.4-12 12z"/></svg><svg width="35" height="35" id="round-x" x="2816" y="2862"><path opacity=".6" fill="#E53935" d="M23.983 12.314l-1.297-1.297-5.186 5.186-5.186-5.186-1.297 1.297 5.187 5.186-5.187 5.186 1.297 1.297 5.186-5.186 5.187 5.186 1.297-1.297-5.187-5.186 5.186-5.186z"/><circle opacity=".6" fill="none" stroke="#E53935" stroke-miterlimit="10" cx="17.5" cy="17.5" r="16.75"/></svg><svg width="35" height="35" id="round-x-inv" x="2851" y="2897"><path opacity=".6" fill="#E53935" d="M17.5.25C7.988.25.25 7.988.25 17.5S7.988 34.75 17.5 34.75s17.25-7.738 17.25-17.25S27.012.25 17.5.25zm6.483 22.436l-1.297 1.297-5.186-5.186-5.186 5.186-1.297-1.297 5.187-5.186-5.187-5.186 1.297-1.297 5.186 5.186 5.187-5.186 1.297 1.297-5.187 5.186 5.186 5.186z"/></svg><svg width="24" height="24" viewBox="-4.5 -4.5 24 24" id="search" x="2886" y="2932"><path d="M10.632 9.306h-.636l-.22-.22A5.184 5.184 0 0 0 11.032 5.7a5.207 5.207 0 1 0-5.207 5.21A5.183 5.183 0 0 0 9.21 9.654l.22.22v.635l4.005 3.997 1.194-1.195-4-4.006zm-4.808 0a3.605 3.605 0 1 1 0-7.21 3.605 3.605 0 0 1 0 7.21z" opacity="0.3"/></svg><svg width="24" height="24" id="search-light" x="2910" y="2956"><path fill="#FFF" d="M16 14.3h-.8l-.3-.3c1-1.1 1.6-2.6 1.6-4.2 0-3.6-2.9-6.5-6.5-6.5S3.5 6.2 3.5 9.8s2.9 6.5 6.5 6.5c1.6 0 3.1-.6 4.2-1.6l.3.3v.8l5 5 1.5-1.5-5-5zm-6 0c-2.5 0-4.5-2-4.5-4.5s2-4.5 4.5-4.5 4.5 2 4.5 4.5-2 4.5-4.5 4.5z"/></svg><svg width="24" height="24" id="send" x="2934" y="2980"><path opacity=".4" d="M1.1 21.757l22.7-9.73L1.1 2.3l.012 7.912 13.623 1.816-13.623 1.817-.01 7.912z"/></svg><svg width="24" height="24" id="send-light" x="2958" y="3004"><path fill="#FFF" d="M1.1 21.757l22.7-9.73L1.1 2.3l.012 7.912 13.623 1.816-13.623 1.817-.01 7.912z"/></svg><svg width="32" height="32" id="share" x="2982" y="3028"><path d="M25.005 14.78L17.225 7v4.445C9.445 12.557 6.113 18.115 5 23.67c2.778-3.89 6.668-5.668 12.226-5.668v4.557l7.78-7.78z" fill="#263238"/></svg><svg width="24" height="24" id="smiley" x="3014" y="3060"><path fill-rule="evenodd" clip-rule="evenodd" d="M9.153 11.603c.795 0 1.44-.88 1.44-1.962s-.645-1.96-1.44-1.96c-.795 0-1.44.88-1.44 1.96s.645 1.965 1.44 1.965zM5.95 12.965c-.027-.307-.132 5.218 6.062 5.55 6.066-.25 6.066-5.55 6.066-5.55-6.078 1.416-12.13 0-12.13 0zm11.362 1.108s-.67 1.96-5.05 1.96c-3.506 0-5.39-1.165-5.608-1.96 0 0 5.912 1.055 10.658 0zM11.804 1.01C5.61 1.01.978 6.034.978 12.23s4.826 10.76 11.02 10.76S23.02 18.424 23.02 12.23c0-6.197-5.02-11.22-11.216-11.22zM12 21.355c-5.273 0-9.38-3.886-9.38-9.16 0-5.272 3.94-9.547 9.214-9.547a9.548 9.548 0 0 1 9.548 9.548c0 5.272-4.11 9.16-9.382 9.16zm3.108-9.75c.795 0 1.44-.88 1.44-1.963s-.645-1.96-1.44-1.96c-.795 0-1.44.878-1.44 1.96s.645 1.963 1.44 1.963z" opacity=".4"/></svg><svg id="star" width="16" height="15" x="3038" y="3084"><style>.dxst0{fill:#92a58c}</style><path class="dxst0" d="M8.3 10.2l-2.5 1.7c-.3.2-.8-.1-.7-.5L6 8.6c.1-.2 0-.4-.2-.5L3.5 6.3c-.4-.3-.2-.8.2-.8l3-.1c.2 0 .3-.1.4-.3l1-2.8c.1-.4.7-.4.8 0l1 2.8c.1.2.2.3.4.3l3 .1c.4 0 .6.5.3.8l-2.4 1.8c-.1.1-.2.3-.2.5l.9 2.9c.1.4-.3.7-.7.5l-2.5-1.7c-.1-.2-.3-.2-.4-.1z"/></svg><svg id="star-btn" width="24" height="24" x="3054" y="3099"><style>.dyst0{fill:#263238}</style><path class="dyst0" d="M11.1 16.8l-4.4 3.1c-.7.5-1.5-.1-1.3-.9L7 13.9c.1-.3 0-.7-.3-.9L2.4 9.7c-.6-.4-.3-1.4.5-1.4l5.4-.1c.3 0 .6-.2.7-.6l1.8-5.1c.2-.7 1.3-.7 1.5 0l1.8 5.1c.1.3.4.5.7.5l5.4.1c.8 0 1.1 1 .5 1.4L16.4 13c-.3.2-.4.5-.3.9l1.6 5.2c.2.7-.6 1.3-1.2.9L12 16.8c-.3-.2-.6-.2-.9 0z"/></svg><svg id="star-light" width="16" height="15" x="3078" y="3123"><style>.dzst0{fill:#FFF}</style><path class="dzst0" d="M8.3 10.2l-2.5 1.7c-.3.2-.8-.1-.7-.5L6 8.6c.1-.2 0-.4-.2-.5L3.5 6.3c-.4-.3-.2-.8.2-.8l3-.1c.2 0 .3-.1.4-.3l1-2.8c.1-.4.7-.4.8 0l1 2.8c.1.2.2.3.4.3l3 .1c.4 0 .6.5.3.8l-2.4 1.8c-.1.1-.2.3-.2.5l.9 2.9c.1.4-.3.7-.7.5l-2.5-1.7c-.1-.2-.3-.2-.4-.1z"/></svg><svg width="16" height="20" id="status-audio" x="3094" y="3138"><path fill="#263238" d="M8 3C4.667 3 2 5.667 2 9v4.667c0 1.133.867 2 2 2h2v-5.333H3.333V9C3.333 6.4 5.4 4.333 8 4.333S12.667 6.4 12.667 9v1.333H10v5.333h2c1.133 0 2-.867 2-2V9c0-3.333-2.667-6-6-6z"/></svg><svg width="18" height="18" id="status-check" x="3110" y="3158"><path d="M12.502 5.035l-.57-.444a.434.434 0 0 0-.61.08l-6.39 8.197a.38.38 0 0 1-.576.04L1.742 10.35a.435.435 0 0 0-.614.006l-.505.516a.435.435 0 0 0 .007.615l3.887 3.8c.17.167.43.15.577-.04l7.483-9.6a.435.435 0 0 0-.075-.61z" fill="#263238" opacity=".4"/></svg><svg width="18" height="18" id="status-dblcheck" x="3128" y="3176"><path d="M17.394 5.035l-.57-.444a.434.434 0 0 0-.61.08l-6.39 8.197a.38.38 0 0 1-.576.04l-.427-.39a.38.38 0 0 0-.575.04l-.45.575a.497.497 0 0 0 .042.646l1.575 1.51c.17.167.43.15.578-.04l7.483-9.6a.436.436 0 0 0-.075-.61zm-4.892 0l-.57-.444a.434.434 0 0 0-.61.08l-6.39 8.197a.38.38 0 0 1-.576.04L1.742 10.35a.435.435 0 0 0-.614.006l-.505.516a.435.435 0 0 0 .007.615l3.887 3.8c.17.167.43.15.577-.04l7.483-9.6a.435.435 0 0 0-.075-.61z" fill="#263238" opacity=".4"/></svg><svg width="18" height="18" id="status-dblcheck-ack" x="3146" y="3194"><path d="M17.394 5.035l-.57-.444a.434.434 0 0 0-.61.08l-6.39 8.197a.38.38 0 0 1-.576.04l-.427-.39a.38.38 0 0 0-.575.04l-.45.575a.497.497 0 0 0 .042.646l1.575 1.51c.17.167.43.15.578-.04l7.483-9.6a.436.436 0 0 0-.075-.61zm-4.892 0l-.57-.444a.434.434 0 0 0-.61.08l-6.39 8.197a.38.38 0 0 1-.576.04L1.742 10.35a.435.435 0 0 0-.614.006l-.505.516a.435.435 0 0 0 .007.615l3.887 3.8c.17.167.43.15.577-.04l7.483-9.6a.435.435 0 0 0-.075-.61z" fill="#4fc3f7"/></svg><svg id="status-document" viewBox="-3 3 16 20" width="16" height="20" x="3164" y="3212"><style>.eest0{fill:#263238}</style><path class="eest0" d="M9.2 6H1.5C.7 6 0 6.7 0 7.5v10.1c0 .7.7 1.4 1.5 1.4h7.7c.8 0 1.5-.7 1.5-1.5v-10C10.6 6.7 10 6 9.2 6zm-2.6 9.7H2.5v-1.3h4.1v1.3zM8.3 13H2.5v-1.3h5.8V13zm0-2.7H2.5V9h5.8v1.3z"/></svg><svg width="16" height="20" id="status-image" x="3180" y="3232"><path d="M13.822 4.668H7.14l-1.068-1.09A1.068 1.068 0 0 0 5.41 3.3H3.53c-.213 0-.51.128-.655.285l-1.6 1.71c-.145.158-.265.46-.265.676v8.05c0 .645.523 1.17 1.17 1.17h11.64a1.17 1.17 0 0 0 1.17-1.17V5.84a1.17 1.17 0 0 0-1.17-1.17zm-5.982 8.63a3.395 3.395 0 1 1 0-6.79 3.395 3.395 0 0 1 0 6.79zm0-5.787a2.392 2.392 0 1 0 0 4.787 2.392 2.392 0 0 0 0-4.784z" fill-rule="evenodd" clip-rule="evenodd" fill="#263238"/></svg><svg width="16" height="20" id="status-location" x="3196" y="3252"><path d="M8.002 3.305a4.66 4.66 0 0 0-4.687 4.687c0 3.482 4.687 8.704 4.687 8.704s4.687-5.222 4.687-8.704A4.66 4.66 0 0 0 8 3.305zm0 6.36A1.658 1.658 0 0 1 6.328 7.99c0-.936.736-1.673 1.674-1.673s1.674.737 1.674 1.674c0 .94-.737 1.677-1.674 1.677z" fill="#263238"/></svg><svg width="16" height="20" id="status-ptt-blue" x="3212" y="3272"><path d="M8 11.745a2 2 0 0 0 2-2V4.94a2 2 0 0 0-4 0v4.804a2 2 0 0 0 2 2zm3.495-2A3.5 3.5 0 0 1 8 13.238a3.5 3.5 0 0 1-3.495-3.496H3.11c0 2.458 1.828 4.477 4.192 4.82v2.494h1.395V14.56c2.364-.34 4.193-2.36 4.193-4.82h-1.395z" fill="#4fc3f7"/></svg><svg width="16" height="20" id="status-ptt-gray" x="3228" y="3292"><path d="M8 11.745a2 2 0 0 0 2-2V4.94a2 2 0 0 0-4 0v4.804a2 2 0 0 0 2 2zm3.495-2A3.5 3.5 0 0 1 8 13.238a3.5 3.5 0 0 1-3.495-3.496H3.11c0 2.458 1.828 4.477 4.192 4.82v2.494h1.395V14.56c2.364-.34 4.193-2.36 4.193-4.82h-1.395z" fill="#263238"/></svg><svg width="16" height="20" id="status-ptt-green" x="3244" y="3312"><path d="M8 11.745a2 2 0 0 0 2-2V4.94a2 2 0 0 0-4 0v4.804a2 2 0 0 0 2 2zm3.495-2A3.5 3.5 0 0 1 8 13.238a3.5 3.5 0 0 1-3.495-3.496H3.11c0 2.458 1.828 4.477 4.192 4.82v2.494h1.395V14.56c2.364-.34 4.193-2.36 4.193-4.82h-1.395z" fill="#09d261"/></svg><svg width="18" height="18" id="status-time" x="3260" y="3332"><path d="M8.702 10.12h-1.55V7.695a.515.515 0 0 0-.516-.515H6.54a.515.515 0 0 0-.515.516v3.035c0 .287.23.518.515.518H8.7c.283 0 .514-.23.514-.515v-.095a.514.514 0 0 0-.514-.516zm0-5.42H5.098A3.4 3.4 0 0 0 1.7 8.098v3.604A3.4 3.4 0 0 0 5.098 15.1h3.604a3.4 3.4 0 0 0 3.398-3.398V8.098A3.4 3.4 0 0 0 8.702 4.7zm2.06 7.002a2.06 2.06 0 0 1-2.06 2.06H5.098a2.06 2.06 0 0 1-2.06-2.06V8.098a2.06 2.06 0 0 1 2.06-2.06h3.604a2.06 2.06 0 0 1 2.06 2.06v3.604z" fill="#263238" fill-opacity=".4"/></svg><svg width="16" height="20" id="status-vcard" x="3278" y="3350"><path d="M7.844 9.975a3 3 0 1 0 0-6 3 3 0 0 0 0 6zm5.76 3.087c-.885-.845-3.137-1.587-5.722-1.587-2.584 0-4.74.742-5.622 1.587-.203.195-.26.464-.26.746v1.68h12v-1.68c0-.282-.193-.552-.397-.746z" fill="#263238"/></svg><svg width="16" height="20" id="status-video" x="3294" y="3370"><path d="M15.243 5.868l-3.48 3.09V6.69a1.19 1.19 0 0 0-1.19-1.188H1.946a1.19 1.19 0 0 0-1.19 1.19v7.137c0 .655.533 1.19 1.19 1.19h8.63a1.19 1.19 0 0 0 1.188-1.19v-2.3l3.48 3.09V5.87z" fill="#263238"/></svg><svg id="unstar-btn" width="24" height="24" x="3310" y="3390"><style>.enst0{fill-rule:evenodd;clip-rule:evenodd;fill:#263238}</style><path class="enst0" d="M20.7 9.7c.6-.5.3-1.4-.5-1.4l-5.4-.1c-.3 0-.6-.2-.7-.5l-1.8-5.1c-.2-.7-1.3-.7-1.5 0L9.3 7l7.8 5.5 3.6-2.8zm1.2 7.9l-.1-.1L3.2 4.6l-.9 1.2 3.4 2.4-2.8.1c-.8 0-1.1 1-.5 1.4L6.7 13c.3.2.4.5.3.9L5.4 19c-.2.7.6 1.3 1.2.9l4.4-3.1c.3-.2.6-.2.9 0l4.4 3.1c.6.4 1.4-.2 1.2-.9l-.9-3.1 4.3 3 1-1.3z"/></svg><svg width="24" height="24" id="user" x="3334" y="3414"><path d="M11.753 12.49a4.745 4.745 0 1 0 0-9.49 4.745 4.745 0 0 0 0 9.49zm9.11 4.883c-1.398-1.336-4.96-2.51-9.05-2.51-4.087 0-7.495 1.174-8.892 2.51-.32.31-.41.735-.41 1.18v2.657h18.98v-2.656c0-.446-.303-.873-.625-1.18z" opacity=".4"/></svg><svg width="24" height="24" id="x" x="3358" y="3438"><path opacity=".5" d="M19.058 17.236l-5.293-5.293 5.293-5.293-1.764-1.764L12 10.178 6.707 4.885 4.942 6.65l5.293 5.292-5.293 5.293L6.707 19 12 13.707 17.293 19l1.765-1.764z"/></svg><svg width="24" height="24" id="x-alt" x="3382" y="3462"><path fill="#CCC" d="M17.25 7.8L16.2 6.75l-4.2 4.2-4.2-4.2L6.75 7.8l4.2 4.2-4.2 4.2 1.05 1.05 4.2-4.2 4.2 4.2 1.05-1.05-4.2-4.2z"/></svg><svg width="24" height="24" id="x-alt-light" x="3406" y="3486"><filter id="era"><feGaussianBlur stdDeviation=".1" in="SourceGraphic"/></filter><path d="M17.7 16.4l-4.2-4.2L17.7 8l-1.5-1.5-4.2 4.2-4.2-4.2L6.3 8l4.2 4.2-4.2 4.2 1.5 1.5 4.2-4.2 4.2 4.2z" opacity=".2" filter="url(#era)"/><path fill="#FFF" d="M17.7 16l-4.2-4.2 4.1-4.2-1.4-1.4-4.2 4.1-4.2-4.2-1.5 1.5 4.1 4.2L6.3 16l1.4 1.4 4.2-4.1 4.2 4.1 1.6-1.4z"/></svg><svg width="16" height="16" id="x-alt-small" x="3430" y="3510"><path d="M12.174 4.66l-.836-.834L8 7.166l-3.34-3.34-.834.835L7.166 8l-3.34 3.34.835.834L8 8.834l3.338 3.34.836-.835L8.834 8z" opacity=".5"/></svg><svg width="24" height="24" id="x-input" x="3446" y="3526"><path d="M388.5-13.7l-4.9-4.9L382-17l6.5 6.5 13.9-13.9-1.6-1.6zM18.7 8l-1.4-1.3L12 12 6.7 6.7 5.3 8l5.4 5.3-5.4 5.4L6.7 20l5.3-5.3 5.3 5.3 1.4-1.3-5.4-5.4z" opacity=".4"/></svg><svg width="24" height="24" id="x-light" x="3470" y="3550"><path fill="#FFF" d="M19.058 17.236l-5.293-5.293 5.293-5.293-1.764-1.764L12 10.178 6.707 4.885 4.942 6.65l5.293 5.292-5.293 5.293L6.707 19 12 13.707 17.293 19l1.765-1.764z"/></svg><svg id="x-viewer" viewBox="4 4 24 24" width="24" height="24" x="3494" y="3574"><style>.evst0{fill:#263238}</style><path class="evst0" d="M23.8 9.8l-1.6-1.6-6.2 6.2-6.2-6.2-1.6 1.6 6.2 6.2-6.2 6.2 1.6 1.6 6.2-6.2 6.2 6.2 1.6-1.6-6.2-6.2 6.2-6.2z"/></svg><svg width="212" height="212" id="group-default"><path fill-rule="evenodd" clip-rule="evenodd" fill="#DFE5E7" d="M105.946,0.25C164.318,0.25,211.64,47.596,211.64,106	c0,58.404-47.322,105.75-105.695,105.75C47.571,211.75,0.25,164.404,0.25,106C0.25,47.596,47.571,0.25,105.946,0.25z"/><g><g><path fill="#FFFFFF" d="M61.543,100.988c8.073,0,14.246-6.174,14.246-14.246s-6.173-14.246-14.246-14.246s-14.246,6.173-14.246,14.246S53.471,100.988,61.543,100.988z M69.702,118.529c2.24-1.998,5.077-4.122,8.545-6.062c-4.174-2.217-9.641-3.859-16.704-3.859c-21.844,0-28.492,15.67-28.492,15.67v8.073h26.181l0.105-0.248C59.64,131.39,62.501,124.952,69.702,118.529z M150.457,108.608c-6.854,0-12.21,1.543-16.336,3.661c3.633,1.993,6.587,4.194,8.903,6.26c7.201,6.422,10.061,12.861,10.364,13.574l0.105,0.248h25.456v-8.073C178.948,124.278,172.3,108.608,150.457,108.608z M150.457,100.988c8.073,0,14.246-6.174,14.246-14.246s-6.173-14.246-14.246-14.246s-14.246,6.173-14.246,14.246S142.384,100.988,150.457,100.988z M106.364,104.198c1.537,0,3.029-0.147,4.464-0.428c0.717-0.14,1.419-0.315,2.106-0.521c1.03-0.309,2.023-0.69,2.976-1.138c1.269-0.597,2.465-1.312,3.574-2.133c1.664-1.231,3.133-2.701,4.364-4.364c0.41-0.554,0.795-1.13,1.151-1.727c0.534-0.894,1.005-1.834,1.408-2.813c0.268-0.653,0.506-1.323,0.713-2.01c0.103-0.343,0.198-0.69,0.285-1.042c0.174-0.702,0.315-1.42,0.421-2.151c0.16-1.097,0.242-2.224,0.242-3.377c0-1.153-0.083-2.281-0.242-3.377c-0.107-0.731-0.248-1.449-0.421-2.151c-0.087-0.351-0.182-0.698-0.285-1.042c-0.206-0.686-0.445-1.357-0.713-2.01c-0.403-0.979-0.874-1.919-1.408-2.813c-0.356-0.596-0.74-1.172-1.151-1.727c-1.231-1.664-2.7-3.133-4.364-4.364c-1.109-0.821-2.305-1.536-3.574-2.133c-0.952-0.448-1.946-0.829-2.976-1.138c-0.687-0.206-1.389-0.38-2.106-0.521c-1.434-0.281-2.927-0.428-4.464-0.428c-12.299,0-21.705,9.405-21.705,21.704C84.659,94.793,94.065,104.198,106.364,104.198zM145.629,131c-0.349-0.532-0.748-1.108-1.2-1.718c-0.452-0.609-0.956-1.252-1.516-1.917c-0.56-0.665-1.176-1.352-1.851-2.05c-1.012-1.047-2.156-2.119-3.442-3.179c-1.716-1.413-3.685-2.804-5.931-4.083c-1.091-0.622-2.251-1.216-3.476-1.776c-0.036-0.016-0.069-0.034-0.104-0.05c-5.692-2.581-12.849-4.376-21.746-4.376c-8.898,0-16.055,1.795-21.746,4.376c-0.196,0.089-0.379,0.185-0.572,0.276c-0.832,0.392-1.631,0.799-2.399,1.221c-0.416,0.228-0.823,0.46-1.221,0.696c-1.988,1.178-3.763,2.436-5.318,3.716c-1.286,1.06-2.431,2.132-3.443,3.179c-0.674,0.698-1.29,1.385-1.85,2.05c-0.56,0.665-1.065,1.308-1.516,1.917c-0.452,0.61-0.851,1.186-1.2,1.718c-0.324,0.493-0.6,0.943-0.841,1.351c-0.019,0.032-0.042,0.069-0.061,0.101c-0.253,0.432-0.459,0.809-0.622,1.119c-0.325,0.621-0.475,0.975-0.475,0.975v11.692h82.53v-11.692c0,0-0.36-0.842-1.158-2.195C146.229,131.943,145.952,131.493,145.629,131z"/></g></g></svg></svg>